<svg xmlns="http://www.w3.org/2000/svg" width="20" height="20" viewBox="0 0 20 20">
  <g id="award" transform="translate(0 -0.489)">
    <rect id="Rectangle_43" data-name="Rectangle 43" width="20" height="20" transform="translate(0 0.489)" fill="#22e4ac" opacity="0"/>
    <path id="Path_419" data-name="Path 419" d="M16.522,17.439l-1.9-7.411A4.891,4.891,0,0,0,15.7,6.94a4.94,4.94,0,1,0-9.881,0,4.891,4.891,0,0,0,1.1,3.1L4.994,17.439a.823.823,0,0,0,1.219.914L10.6,15.776l4.677,2.585a.749.749,0,0,0,.42.107.823.823,0,0,0,.823-1.029ZM10.758,3.647A3.294,3.294,0,1,1,7.465,6.94a3.294,3.294,0,0,1,3.294-3.294Z" transform="translate(-0.758 -0.234)" fill="#22e4ac"/>
  </g>
</svg>
