<svg xmlns="http://www.w3.org/2000/svg" width="30" height="30" viewBox="0 0 30 30">
  <g id="bell" transform="translate(0.418 0.418)">
    <rect id="Rectangle_1576" data-name="Rectangle 1576" width="30" height="30" transform="translate(-0.418 -0.418)" fill="#747d8c" opacity="0"/>
    <path id="Path_3600" data-name="Path 3600" d="M24.287,18.051l-2.187-2.2V10.433a8.336,8.336,0,0,0-7.072-8.36,8.19,8.19,0,0,0-9.259,8.1v5.675l-2.187,2.2a1.993,1.993,0,0,0,1.41,3.39H9.074v.413A4.666,4.666,0,0,0,13.934,26.3a4.666,4.666,0,0,0,4.861-4.447v-.413h4.083a1.993,1.993,0,0,0,1.41-3.39Zm-7.923,3.8a2.284,2.284,0,0,1-2.43,2.017,2.284,2.284,0,0,1-2.43-2.017v-.413h4.861Z" transform="translate(0.647 0.431)" fill="#747d8c"/>
  </g>
</svg>
