<svg id="checkmark-circle-2" xmlns="http://www.w3.org/2000/svg" width="24" height="24" viewBox="0 0 24 24">
  <rect id="Rectangle_1618" data-name="Rectangle 1618" width="24" height="24" fill="#22e4ac" opacity="0"/>
  <path id="Path_3650" data-name="Path 3650" d="M12,2A10,10,0,1,0,22,12,10,10,0,0,0,12,2Zm0,18a8,8,0,1,1,8-8A8,8,0,0,1,12,20Z" fill="#22e4ac"/>
  <path id="Path_3651" data-name="Path 3651" d="M14.7,8.39l-3.78,5L9.29,11.28a1,1,0,1,0-1.58,1.23l2.43,3.11a1,1,0,0,0,1.58-.01l4.57-6a1.006,1.006,0,0,0-1.6-1.22Z" fill="#22e4ac"/>
</svg>
