<svg id="download" xmlns="http://www.w3.org/2000/svg" width="24" height="24" viewBox="0 0 24 24">
  <rect id="Rectangle_1613" data-name="Rectangle 1613" width="24" height="24" fill="#324efd" opacity="0"/>
  <rect id="Rectangle_1614" data-name="Rectangle 1614" width="16" height="2" rx="1" transform="translate(4 18)" fill="#324efd"/>
  <rect id="Rectangle_1615" data-name="Rectangle 1615" width="4" height="2" rx="1" transform="translate(4 20) rotate(-90)" fill="#324efd"/>
  <rect id="Rectangle_1616" data-name="Rectangle 1616" width="4" height="2" rx="1" transform="translate(18 20) rotate(-90)" fill="#324efd"/>
  <path id="Path_3648" data-name="Path 3648" d="M12,15a1,1,0,0,1-.58-.18L7.42,12a1,1,0,1,1,1.16-1.63L12,12.76l3.4-2.56a1,1,0,1,1,1.2,1.6l-4,3a1,1,0,0,1-.6.2Z" fill="#324efd"/>
  <path id="Path_3649" data-name="Path 3649" d="M12,13a1,1,0,0,1-1-1V4a1,1,0,0,1,2,0v8A1,1,0,0,1,12,13Z" fill="#324efd"/>
</svg>
