<svg id="Eye_ON" data-name="Eye ON" xmlns="http://www.w3.org/2000/svg" width="24" height="24" viewBox="0 0 24 24">
  <g id="eye">
    <rect id="Rectangle_79" data-name="Rectangle 79" width="24" height="24" fill="#747d8c" opacity="0"/>
    <circle id="Ellipse_17" data-name="Ellipse 17" cx="1.5" cy="1.5" r="1.5" transform="translate(10.5 10.5)" fill="#747d8c"/>
    <path id="Path_459" data-name="Path 459" d="M21.87,11.5c-.64-1.11-4.16-6.68-10.14-6.5C6.2,5.14,3,10,2.13,11.5a1,1,0,0,0,0,1c.63,1.09,4,6.5,9.89,6.5h.25c5.53-.14,8.74-5,9.6-6.5A1,1,0,0,0,21.87,11.5ZM12,15.5A3.5,3.5,0,1,1,15.5,12,3.5,3.5,0,0,1,12,15.5Z" fill="#747d8c"/>
  </g>
</svg>
