<svg id="google-icon-logo-svg-vector" xmlns="http://www.w3.org/2000/svg" width="24.002" height="24.492" viewBox="0 0 24.002 24.492">
  <path id="Path_453" data-name="Path 453" d="M142.306,109.265a10.5,10.5,0,0,0-.258-2.5h-11.5v4.545H137.3a5.985,5.985,0,0,1-2.5,3.973l-.023.152,3.635,2.816.252.025a11.974,11.974,0,0,0,3.647-9.008" transform="translate(-118.304 -96.746)" fill="#4285f4"/>
  <path id="Path_454" data-name="Path 454" d="M24.865,166.194a11.672,11.672,0,0,0,8.11-2.966l-3.864-2.994a7.248,7.248,0,0,1-4.245,1.225A7.372,7.372,0,0,1,17.9,156.37l-.144.012-3.78,2.925-.049.137a12.237,12.237,0,0,0,10.94,6.749" transform="translate(-12.619 -141.702)" fill="#34a853"/>
  <path id="Path_455" data-name="Path 455" d="M5.279,79.291a7.539,7.539,0,0,1-.408-2.422,7.922,7.922,0,0,1,.395-2.422l-.007-.162L1.431,71.312l-.125.06a12.22,12.22,0,0,0,0,10.994l3.973-3.075" transform="translate(0 -64.623)" fill="#fbbc05"/>
  <path id="Path_456" data-name="Path 456" d="M24.865,4.735A6.787,6.787,0,0,1,29.6,6.558l3.456-3.374A11.766,11.766,0,0,0,24.865,0a12.237,12.237,0,0,0-10.94,6.749l3.96,3.075a7.4,7.4,0,0,1,6.98-5.089" transform="translate(-12.619)" fill="#eb4335"/>
</svg>
