<svg id="instagram" xmlns="http://www.w3.org/2000/svg" width="40" height="40" viewBox="0 0 40 40">
  <g id="Path_2124" data-name="Path 2124" fill="none">
    <path d="M20,0A20,20,0,1,1,0,20,20,20,0,0,1,20,0Z" stroke="none"/>
    <path d="M 20 1 C 17.4345703125 1 14.94642066955566 1.502220153808594 12.60465049743652 2.492698669433594 C 10.34226036071777 3.449611663818359 8.310220718383789 4.819721221923828 6.564968109130859 6.564968109130859 C 4.819721221923828 8.310220718383789 3.449611663818359 10.34226036071777 2.492698669433594 12.60465049743652 C 1.502220153808594 14.94642066955566 1 17.4345703125 1 20 C 1 22.5654296875 1.502220153808594 25.05358123779297 2.492698669433594 27.39535140991211 C 3.449611663818359 29.65773963928223 4.819721221923828 31.68978118896484 6.564968109130859 33.43502807617188 C 8.310220718383789 35.18027877807617 10.34226036071777 36.55038833618164 12.60465049743652 37.50730133056641 C 14.94642066955566 38.49777984619141 17.4345703125 39 20 39 C 22.5654296875 39 25.05358123779297 38.49777984619141 27.39535140991211 37.50730133056641 C 29.65773963928223 36.55038833618164 31.68978118896484 35.18027877807617 33.43502807617188 33.43502807617188 C 35.18027877807617 31.68978118896484 36.55038833618164 29.65773963928223 37.50730133056641 27.39535140991211 C 38.49777984619141 25.05358123779297 39 22.5654296875 39 20 C 39 17.4345703125 38.49777984619141 14.94642066955566 37.50730133056641 12.60465049743652 C 36.55038833618164 10.34226036071777 35.18027877807617 8.310220718383789 33.43502807617188 6.564968109130859 C 31.68978118896484 4.819721221923828 29.65773963928223 3.449611663818359 27.39535140991211 2.492698669433594 C 25.05358123779297 1.502220153808594 22.5654296875 1 20 1 M 20 0 C 31.04570007324219 0 40 8.954299926757812 40 20 C 40 31.04570007324219 31.04570007324219 40 20 40 C 8.954299926757812 40 0 31.04570007324219 0 20 C 0 8.954299926757812 8.954299926757812 0 20 0 Z" stroke="none" fill="#fff"/>
  </g>
  <path id="Path_2116" data-name="Path 2116" d="M25.519,7.391a9.186,9.186,0,0,0-.584-3.05A6.44,6.44,0,0,0,21.256.663a9.21,9.21,0,0,0-3.05-.584C16.861.015,16.434,0,13.021,0S9.18.015,7.84.074A9.189,9.189,0,0,0,4.79.658,6.134,6.134,0,0,0,2.56,2.112,6.189,6.189,0,0,0,1.112,4.336a9.211,9.211,0,0,0-.584,3.05C.463,8.732.449,9.159.449,12.572s.015,3.84.074,5.181a9.186,9.186,0,0,0,.585,3.05,6.439,6.439,0,0,0,3.678,3.678,9.211,9.211,0,0,0,3.05.584c1.341.059,1.768.074,5.181.074s3.84-.015,5.181-.074a9.184,9.184,0,0,0,3.05-.584A6.43,6.43,0,0,0,24.925,20.8a9.217,9.217,0,0,0,.584-3.05c.059-1.341.074-1.768.074-5.181s0-3.84-.064-5.181ZM23.255,17.655a6.891,6.891,0,0,1-.432,2.333,4.17,4.17,0,0,1-2.387,2.387,6.915,6.915,0,0,1-2.333.432c-1.326.059-1.724.074-5.078.074s-3.757-.015-5.078-.074a6.887,6.887,0,0,1-2.333-.432,3.868,3.868,0,0,1-1.444-.938,3.908,3.908,0,0,1-.938-1.444A6.916,6.916,0,0,1,2.8,17.66c-.059-1.326-.074-1.724-.074-5.078S2.742,8.825,2.8,7.5a6.887,6.887,0,0,1,.432-2.333,3.821,3.821,0,0,1,.943-1.444A3.9,3.9,0,0,1,5.62,2.79a6.92,6.92,0,0,1,2.333-.432c1.326-.059,1.724-.074,5.078-.074s3.757.015,5.078.074a6.891,6.891,0,0,1,2.333.432,3.866,3.866,0,0,1,1.444.938,3.908,3.908,0,0,1,.938,1.444A6.919,6.919,0,0,1,23.255,7.5c.059,1.326.074,1.724.074,5.078s-.015,3.747-.074,5.073Zm0,0" transform="translate(6.954 7.403)" fill="#fff"/>
  <path id="Path_2117" data-name="Path 2117" d="M131.407,124.5a6.458,6.458,0,1,0,6.458,6.458A6.46,6.46,0,0,0,131.407,124.5Zm0,10.647a4.189,4.189,0,1,1,4.189-4.189A4.19,4.19,0,0,1,131.407,135.147Zm0,0" transform="translate(-111.432 -110.983)" fill="#fff"/>
  <path id="Path_2118" data-name="Path 2118" d="M365.465,90.109a1.508,1.508,0,1,1-1.508-1.508A1.508,1.508,0,0,1,365.465,90.109Zm0,0" transform="translate(-337.269 -76.848)" fill="#fff"/>
</svg>
