<svg xmlns="http://www.w3.org/2000/svg" width="70" height="70" viewBox="0 0 70 70">
  <g id="lock" transform="translate(-0.287 -0.287)">
    <rect id="Rectangle_1620" data-name="Rectangle 1620" width="70" height="70" transform="translate(0.287 0.287)" fill="#fff" opacity="0"/>
    <path id="Path_3652" data-name="Path 3652" d="M42.25,19.44H39.308V13.879a11.769,11.769,0,0,0-23.539,0V19.44H12.827A8.827,8.827,0,0,0,4,28.267V51.806a8.827,8.827,0,0,0,8.827,8.827H42.25a8.827,8.827,0,0,0,8.827-8.827V28.267A8.827,8.827,0,0,0,42.25,19.44Zm-20.6-5.561a6.061,6.061,0,0,1,5.885-6.208,6.061,6.061,0,0,1,5.885,6.208V19.44H21.654ZM45.192,51.806a2.942,2.942,0,0,1-2.942,2.942H12.827a2.942,2.942,0,0,1-2.942-2.942V28.267a2.942,2.942,0,0,1,2.942-2.942H42.25a2.942,2.942,0,0,1,2.942,2.942Z" transform="translate(7.749 4.078)" fill="#fff"/>
    <path id="Path_3653" data-name="Path 3653" d="M17.827,12a8.827,8.827,0,1,0,8.827,8.827A8.827,8.827,0,0,0,17.827,12Zm0,11.769a2.942,2.942,0,1,1,2.942-2.942A2.942,2.942,0,0,1,17.827,23.769Z" transform="translate(17.46 23.287)" fill="#fff"/>
  </g>
</svg>
