<svg xmlns="http://www.w3.org/2000/svg" width="34" height="34" viewBox="0 0 34 34">
  <g id="log-out" transform="translate(-0.213 -0.213)">
    <rect id="Rectangle_1574" data-name="Rectangle 1574" width="34" height="34" transform="translate(34.213 0.213) rotate(90)" fill="#ff6f9b" opacity="0"/>
    <path id="Path_3598" data-name="Path 3598" d="M8.3,6.869A1.434,1.434,0,0,0,8.3,4H5.434A1.434,1.434,0,0,0,4,5.434V25.516a1.434,1.434,0,0,0,1.434,1.434H8.3a1.434,1.434,0,0,0,0-2.869H6.869V6.869Z" transform="translate(1.738 1.738)" fill="#ff6f9b"/>
    <path id="Path_3599" data-name="Path 3599" d="M25.955,13.341,21.91,7.6a1.435,1.435,0,1,0-2.338,1.664l2.467,3.471h-11.6a1.434,1.434,0,1,0,0,2.869H21.91L19.328,19.05a1.434,1.434,0,0,0,2.3,1.721l4.3-5.738a1.434,1.434,0,0,0,.029-1.693Z" transform="translate(3.91 3.04)" fill="#ff6f9b"/>
  </g>
</svg>
