<svg id="play-circle" xmlns="http://www.w3.org/2000/svg" width="20" height="20" viewBox="0 0 20 20">
  <rect id="Rectangle_38" data-name="Rectangle 38" width="20" height="20" fill="#ff6f9b" opacity="0"/>
  <path id="Path_417" data-name="Path 417" d="M10.333,2a8.333,8.333,0,1,0,8.333,8.333A8.333,8.333,0,0,0,10.333,2Zm3.333,9.317-3.033,2.808a1.45,1.45,0,0,1-.967.375,1.4,1.4,0,0,1-.575-.125,1.333,1.333,0,0,1-.833-1.233V7.525a1.333,1.333,0,0,1,.833-1.233,1.417,1.417,0,0,1,1.542.25L13.667,9.35a1.333,1.333,0,0,1,0,1.967Z" transform="translate(-0.333 -0.333)" fill="#ff6f9b"/>
</svg>
