<svg id="star" xmlns="http://www.w3.org/2000/svg" width="20" height="20" viewBox="0 0 20 20">
  <rect id="Rectangle_36" data-name="Rectangle 36" width="20" height="20" transform="translate(20) rotate(90)" fill="#ffee06" opacity="0"/>
  <path id="Path_414" data-name="Path 414" d="M14.973,17.833a.833.833,0,0,1-.383-.092l-4.25-2.225-4.25,2.225a.833.833,0,0,1-1.208-.883l.833-4.692L2.281,8.833a.821.821,0,0,1,.467-1.4L7.5,6.741,9.589,2.466a.833.833,0,0,1,1.5,0l2.117,4.267,4.75.692a.821.821,0,0,1,.467,1.4l-3.433,3.333.833,4.692a.825.825,0,0,1-.85.983Z" transform="translate(-0.339 -0.333)" fill="#ffee06"/>
</svg>
