<svg xmlns="http://www.w3.org/2000/svg" width="13.467" height="16.06" viewBox="0 0 13.467 16.06">
  <g id="student-with-graduation-cap" transform="translate(-37.452)">
    <g id="Layer_2_9_" transform="translate(37.452)">
      <g id="Group_157" data-name="Group 157" transform="translate(0)">
        <path id="Path_451" data-name="Path 451" d="M86.3,2.778c.155.087,1.2.591,1.7.834,0,.2.006.534.013.54.056.485.151,1.023.179,1.175-.046.025-.281.179-.281.659v.008c0,.013,0,.025,0,.038.1,1.332.631.758.74,1.341a2.9,2.9,0,0,0,1.575,1.914,2.226,2.226,0,0,0,1.922,0A2.9,2.9,0,0,0,93.73,7.373c.109-.583.639-.009.74-1.341,0-.013,0-.026,0-.038V5.986c0-.479-.236-.633-.281-.659.028-.152.123-.69.179-1.175.007-.006.011-.344.013-.54.277-.133.716-.345,1.082-.524V4.376a.331.331,0,0,0-.034.561s-.147.826-.194,1.069.838.194.8,0-.194-1.069-.194-1.069a.331.331,0,0,0-.033-.561V2.92c.136-.068.238-.119.278-.142.11-.062.169-.141.156-.223.015-.086-.047-.177-.213-.259-1.185-.58-4.205-2.058-4.5-2.2a.61.61,0,0,0-.658,0c-.3.142-3.319,1.621-4.5,2.2-.166.081-.228.173-.213.259C86.136,2.638,86.195,2.717,86.3,2.778Z" transform="translate(-84.46)" fill="#22e4ac"/>
        <path id="Path_452" data-name="Path 452" d="M48.207,295.526a14.855,14.855,0,0,1-1.694-.87.291.291,0,0,0-.41.128c-.46.769-1.312,3.007-1.906,3.048h-.022c-.594-.042-1.447-2.279-1.906-3.048a.291.291,0,0,0-.41-.128,14.855,14.855,0,0,1-1.694.87c-1.871.675-2.712,1.363-2.712,1.832v3.12H50.919v-3.12C50.919,296.889,50.078,296.2,48.207,295.526Z" transform="translate(-37.452 -284.417)" fill="#22e4ac"/>
      </g>
    </g>
  </g>
</svg>
