<svg xmlns="http://www.w3.org/2000/svg" width="41" height="41" viewBox="0 0 41 41">
  <g id="_002-twitter" data-name="002-twitter" transform="translate(0.5 0.5)">
    <path id="Path_2123" data-name="Path 2123" d="M20,0A20,20,0,1,1,0,20,20,20,0,0,1,20,0Z" fill="none" stroke="#747d8c" stroke-width="1"/>
    <path id="Path_2115" data-name="Path 2115" d="M132.137,136.343a9.105,9.105,0,0,1-1.589.536,4.95,4.95,0,0,0,1.307-2.082.26.26,0,0,0-.38-.3,9.164,9.164,0,0,1-2.429,1,.614.614,0,0,1-.152.019.644.644,0,0,1-.425-.162,4.966,4.966,0,0,0-3.286-1.24,5.308,5.308,0,0,0-1.573.243,4.812,4.812,0,0,0-3.243,3.467,5.3,5.3,0,0,0-.118,1.829.178.178,0,0,1-.045.139.185.185,0,0,1-.137.062h-.018a13.023,13.023,0,0,1-8.951-4.782.26.26,0,0,0-.426.033,4.973,4.973,0,0,0,.808,6.038,4.452,4.452,0,0,1-1.133-.439.26.26,0,0,0-.386.224,4.973,4.973,0,0,0,2.9,4.581h-.106a4.447,4.447,0,0,1-.837-.08.26.26,0,0,0-.3.334,4.977,4.977,0,0,0,3.932,3.386,9.165,9.165,0,0,1-5.133,1.559h-.574a.38.38,0,0,0-.372.287.393.393,0,0,0,.188.435,13.631,13.631,0,0,0,6.85,1.847,13.815,13.815,0,0,0,5.854-1.242,12.926,12.926,0,0,0,4.283-3.209,14.069,14.069,0,0,0,2.623-4.393,13.876,13.876,0,0,0,.891-4.807v-.076a.846.846,0,0,1,.316-.658,9.819,9.819,0,0,0,1.975-2.167.26.26,0,0,0-.321-.382Z" transform="translate(-100.861 -123.572)" fill="#747d8c"/>
  </g>
</svg>
