<svg xmlns="http://www.w3.org/2000/svg" width="280" height="200" viewBox="0 0 280 200">
  <g id="Group_9704" data-name="Group 9704" transform="translate(-409 -395)">
    <rect id="Rectangle_1612" data-name="Rectangle 1612" width="280" height="200" rx="15" transform="translate(409 395)" fill="#fdfbfd"/>
    <g id="certificate" transform="translate(449 383.385)">
      <path id="Path_3628" data-name="Path 3628" d="M200.24,23.749V145.23a4.134,4.134,0,0,1-4.134,4.134H4.134A4.134,4.134,0,0,1,0,145.23V23.749a4.134,4.134,0,0,1,4.134-4.134H196.106A4.134,4.134,0,0,1,200.24,23.749Z" fill="#f0bdb1"/>
      <path id="Path_3629" data-name="Path 3629" d="M337.652,255.31a36.286,36.286,0,0,1-2.405,13.038H267.205a36.429,36.429,0,1,1,70.447-13.038Z" transform="translate(-158.113 -118.984)" fill="#eaa998"/>
      <path id="Path_3630" data-name="Path 3630" d="M476.876,19.616h-6.655a4.134,4.134,0,0,1,4.134,4.134V145.23a4.134,4.134,0,0,1-4.134,4.134h6.655a4.134,4.134,0,0,0,4.134-4.134V23.75a4.134,4.134,0,0,0-4.134-4.134Z" transform="translate(-280.77 -0.001)" fill="#eaa998"/>
      <path id="Path_3631" data-name="Path 3631" d="M288.5,400.927l-5.747-7.446a2.679,2.679,0,0,0-2.054-1.041l-9.4-.23a2.678,2.678,0,0,1-2.323-3.888l18.869-37.24,24.037,12.179L293.013,400.5A2.677,2.677,0,0,1,288.5,400.927Z" transform="translate(-160.431 -197.919)" fill="#e5646e"/>
      <path id="Path_3632" data-name="Path 3632" d="M309.98,351.085l-1.7,3.36,17.405,8.819L310.006,394.2a2.525,2.525,0,0,1-4.25.4l2.443,3.163,2.442,3.163a2.677,2.677,0,0,0,4.508-.423l18.868-37.24Z" transform="translate(-182.568 -197.921)" fill="#db4655"/>
      <path id="Path_3633" data-name="Path 3633" d="M399.283,400.927l5.747-7.446a2.679,2.679,0,0,1,2.054-1.041l9.4-.23a2.678,2.678,0,0,0,2.323-3.888l-18.869-37.24L375.905,363.26l18.869,37.24A2.677,2.677,0,0,0,399.283,400.927Z" transform="translate(-224.454 -197.919)" fill="#e5646e"/>
      <path id="Path_3634" data-name="Path 3634" d="M444.6,388.322l-18.869-37.24-6.635,3.362,17.166,33.878a2.678,2.678,0,0,1-2.323,3.888l-9.4.23a2.678,2.678,0,0,0-2.054,1.041l-3.305,4.282,1.388,2.738a2.678,2.678,0,0,0,4.509.426l5.747-7.446a2.679,2.679,0,0,1,2.054-1.041l9.4-.23A2.678,2.678,0,0,0,444.6,388.322Z" transform="translate(-250.244 -197.92)" fill="#db4655"/>
      <path id="Path_3635" data-name="Path 3635" d="M206.525,65.907v89.741H47.473a4.135,4.135,0,0,1-3.014-1.309L33.476,142.623a4.136,4.136,0,0,1-1.116-2.828V56.109a4.137,4.137,0,0,1,4.134-4.134H192.335a4.152,4.152,0,0,1,2.885,1.172l10.056,9.8a4.135,4.135,0,0,1,1.249,2.961Z" transform="translate(-19.322 -19.322)" fill="#fff3be"/>
      <path id="Path_3636" data-name="Path 3636" d="M337.652,255.31H264.8a36.426,36.426,0,0,1,72.852,0Z" transform="translate(-158.113 -118.984)" fill="#ffea8c"/>
      <path id="Path_3637" data-name="Path 3637" d="M430.4,62.946l-10.057-9.8a4.135,4.135,0,0,0-2.885-1.173H409.4a4.133,4.133,0,0,1,2.885,1.173l10.057,9.8a4.133,4.133,0,0,1,1.249,2.961v89.741h8.066V65.908A4.134,4.134,0,0,0,430.4,62.946Z" transform="translate(-244.452 -19.323)" fill="#ffea8c"/>
      <circle id="Ellipse_26" data-name="Ellipse 26" cx="36.426" cy="36.426" r="36.426" transform="translate(114.35 99.899)" fill="#f4dbb3"/>
      <path id="Path_3638" data-name="Path 3638" d="M368.551,218.881a36.926,36.926,0,0,0-3.832.2,36.428,36.428,0,0,1,0,72.451,36.816,36.816,0,0,0,3.832.2,36.426,36.426,0,1,0,0-72.851Z" transform="translate(-217.775 -118.982)" fill="#eac89f"/>
      <path id="Path_3639" data-name="Path 3639" d="M363.3,275.7a22.673,22.673,0,0,1-17.84,22.151,22.958,22.958,0,0,1-7.836.318c-.322-.044-.641-.093-.955-.149-.3-.052-.6-.113-.89-.177a22.675,22.675,0,0,1,.306-44.359c.149-.028.3-.056.447-.081v0c.359-.064.725-.125,1.092-.173a23.106,23.106,0,0,1,7.6.266A22.687,22.687,0,0,1,363.3,275.7Z" transform="translate(-189.861 -139.37)" fill="#c3aff0"/>
      <path id="Path_3640" data-name="Path 3640" d="M224.561,176.06H140.779a2.99,2.99,0,0,1-2.99-2.99v-9.443a2.99,2.99,0,0,1,2.99-2.99h83.783a2.99,2.99,0,0,1,2.99,2.99v9.443A2.99,2.99,0,0,1,224.561,176.06Z" transform="translate(-82.274 -84.205)" fill="#ffd15b"/>
      <path id="Path_3641" data-name="Path 3641" d="M341.206,160.636H333.14a2.99,2.99,0,0,1,2.99,2.99v9.443a2.99,2.99,0,0,1-2.99,2.99h8.066a2.99,2.99,0,0,0,2.99-2.99v-9.443A2.99,2.99,0,0,0,341.206,160.636Z" transform="translate(-198.919 -84.204)" fill="#ffc344"/>
      <g id="Group_9700" data-name="Group 9700" transform="translate(69.799 44.283)">
        <g id="Group_9698" data-name="Group 9698" transform="translate(13.346)">
          <path id="Path_3642" data-name="Path 3642" d="M237.3,86.885H209.39a3.022,3.022,0,0,1,0-6.043H237.3a3.022,3.022,0,1,1,0,6.043Z" transform="translate(-206.368 -80.842)" fill="#eac89f"/>
        </g>
        <g id="Group_9699" data-name="Group 9699" transform="translate(0 15.063)">
          <path id="Path_3643" data-name="Path 3643" d="M230.863,124.272h-54.6a3.022,3.022,0,0,1,0-6.043h54.6a3.022,3.022,0,1,1,0,6.043Z" transform="translate(-173.242 -118.229)" fill="#eac89f"/>
        </g>
      </g>
      <g id="Group_9701" data-name="Group 9701" transform="translate(35.101 101.22)">
        <path id="Path_3644" data-name="Path 3644" d="M127.091,248.507a3.022,3.022,0,0,1-2.888-3.91c.905-2.947,1.038-6.242.525-6.987a1.223,1.223,0,0,0-.242-.014c-3.29.069-9.172,4.954-12.3,8.4a3.022,3.022,0,0,1-5.118-2.947c1.344-4.236,2.467-11.372.751-13.964a1.871,1.871,0,0,0-1.583-.868c-2.421-.227-5.606,2.528-8.717,7.563a59.126,59.126,0,0,0-4.543,9.236,3.022,3.022,0,0,1-5.67-2.093c.823-2.232,8.351-21.765,19.5-20.723a7.893,7.893,0,0,1,6.06,3.555c1.526,2.309,2.119,5.647,1.771,9.945,3.655-2.694,6.92-4.087,9.724-4.146a6.115,6.115,0,0,1,5.165,2.38,9.32,9.32,0,0,1,1.54,5.558,30.7,30.7,0,0,1,18.234-2.31,3.022,3.022,0,1,1-1.021,5.957c-11.621-1.992-18.862,4.328-19.164,4.6A3.032,3.032,0,0,1,127.091,248.507Z" transform="translate(-87.122 -222.159)" fill="#918291"/>
      </g>
      <circle id="Ellipse_27" data-name="Ellipse 27" cx="2.994" cy="2.994" r="2.994" transform="translate(8.137 134.31)" fill="#e5646e"/>
      <circle id="Ellipse_28" data-name="Ellipse 28" cx="2.994" cy="2.994" r="2.994" transform="translate(185.187 28.047)" fill="#e5646e"/>
      <g id="Group_9702" data-name="Group 9702" transform="translate(27.213 81.122)">
        <path id="Path_3645" data-name="Path 3645" d="M79.26,178.319h-8.7a3.022,3.022,0,1,1,0-6.043h8.7a3.022,3.022,0,0,1,0,6.043Z" transform="translate(-67.543 -172.276)" fill="#ffc344"/>
      </g>
      <g id="Group_9703" data-name="Group 9703" transform="translate(158.797 81.122)">
        <path id="Path_3646" data-name="Path 3646" d="M405.854,178.319h-8.7a3.022,3.022,0,0,1,0-6.043h8.7a3.022,3.022,0,0,1,0,6.043Z" transform="translate(-394.137 -172.276)" fill="#ffc344"/>
      </g>
      <path id="Path_3647" data-name="Path 3647" d="M367.781,265.572a40.3,40.3,0,0,0-6.092-12.155,22.955,22.955,0,0,0-7.216-.193c-.367.048-1.092.173-1.092.177a41.08,41.08,0,0,0-5.8,12.216c-2.192,7.756-2.828,19.5,5.939,32.4.314.056.633.1.955.149a23.058,23.058,0,0,0,7.071-.165C370.783,285.1,370.106,273.34,367.781,265.572Zm-10.23,27.57c-5.193-8.32-6.616-16.934-4.222-25.648a35.2,35.2,0,0,1,4.243-9.48C361.5,263.731,368.083,277.212,357.552,293.143Z" transform="translate(-206.707 -139.371)" fill="#aa96e6"/>
    </g>
  </g>
</svg>
