<svg xmlns="http://www.w3.org/2000/svg" xmlns:xlink="http://www.w3.org/1999/xlink" width="190" height="190" viewBox="0 0 190 190">
  <defs>
    <filter id="Ellipse_9" x="0" y="0" width="190" height="190" filterUnits="userSpaceOnUse">
      <feOffset dy="5" input="SourceAlpha"/>
      <feGaussianBlur stdDeviation="15" result="blur"/>
      <feFlood flood-color="#22e4ac" flood-opacity="0.451"/>
      <feComposite operator="in" in2="blur"/>
      <feComposite in="SourceGraphic"/>
    </filter>
  </defs>
  <g id="Group_51" data-name="Group 51" transform="translate(-600 -1184)">
    <g transform="matrix(1, 0, 0, 1, 600, 1184)" filter="url(#Ellipse_9)">
      <circle id="Ellipse_9-2" data-name="Ellipse 9" cx="50" cy="50" r="50" transform="translate(45 40)" fill="#22e4ac"/>
    </g>
    <path id="Union_2" data-name="Union 2" d="M16.36,54.723a7.372,7.372,0,0,1-1.414.139A7.48,7.48,0,0,1,7.7,45.508,10.747,10.747,0,0,1,3.188,27.564a11.713,11.713,0,0,1,6.831-16.65A8.768,8.768,0,0,1,9.8,8.993,8.9,8.9,0,0,1,18.69.1l5.378,0a3.512,3.512,0,0,1,3.509,3.509V54.439a5.614,5.614,0,0,1-11.218.284Zm14.032-.348h0V44.988c0-.176-.029-.355-.029-.537,0-.05.029-.1.029-.14V3.51A3.512,3.512,0,0,1,33.9,0l5.378,0a8.9,8.9,0,0,1,8.89,8.889,8.766,8.766,0,0,1-.217,1.921A11.708,11.708,0,0,1,54.778,27.46a10.748,10.748,0,0,1-4.508,17.946,7.478,7.478,0,0,1-7.249,9.352,7.386,7.386,0,0,1-1.414-.143A5.618,5.618,0,0,1,36,59.887,5.476,5.476,0,0,1,30.392,54.375Z" transform="translate(666.007 1244)" fill="#fff"/>
  </g>
</svg>
