<svg xmlns="http://www.w3.org/2000/svg" xmlns:xlink="http://www.w3.org/1999/xlink" width="190" height="190" viewBox="0 0 190 190">
  <defs>
    <filter id="Ellipse_8" x="0" y="0" width="190" height="190" filterUnits="userSpaceOnUse">
      <feOffset dy="5" input="SourceAlpha"/>
      <feGaussianBlur stdDeviation="15" result="blur"/>
      <feFlood flood-color="#324efd" flood-opacity="0.451"/>
      <feComposite operator="in" in2="blur"/>
      <feComposite in="SourceGraphic"/>
    </filter>
  </defs>
  <g id="Group_208" data-name="Group 208" transform="translate(-330 -1176)">
    <g transform="matrix(1, 0, 0, 1, 330, 1176)" filter="url(#Ellipse_8)">
      <circle id="Ellipse_8-2" data-name="Ellipse 8" cx="50" cy="50" r="50" transform="translate(45 40)" fill="#324efd"/>
    </g>
    <path id="Union_3" data-name="Union 3" d="M57.373,45.784c-5.144-1.171-14.169-2.534-22.729-.438,4.95-4.685,11.939-5.514,16.178-5.525a5.492,5.492,0,0,0,5.474-5.48V7.425h1.557A2.149,2.149,0,0,1,60,9.572V43.693a2.147,2.147,0,0,1-2.144,2.146A2.171,2.171,0,0,1,57.373,45.784ZM.807,45.37A2.137,2.137,0,0,1,0,43.692V9.572A2.149,2.149,0,0,1,2.147,7.425H3.7V34.342a5.493,5.493,0,0,0,5.475,5.48c4.239.01,11.229.839,16.178,5.524-8.56-2.1-17.586-.733-22.729.439a2.171,2.171,0,0,1-.483.055A2.142,2.142,0,0,1,.807,45.37Zm8.38-8.881a2.155,2.155,0,0,1-2.15-2.147V2.147A2.138,2.138,0,0,1,7.669.623,2.119,2.119,0,0,1,9.173,0h.005C14.187.012,23.3,1.172,28.039,8.806a2.065,2.065,0,0,1,.3,1.087V43.587C22.557,37.542,14.184,36.5,9.186,36.489Zm22.481-26.6a2.065,2.065,0,0,1,.294-1.087C36.7,1.172,45.813.012,50.822,0h.005a2.116,2.116,0,0,1,1.5.623,2.138,2.138,0,0,1,.632,1.524V34.342a2.155,2.155,0,0,1-2.15,2.147c-5,.012-13.37,1.053-19.146,7.1Z" transform="translate(395 1243.029)" fill="#fff"/>
  </g>
</svg>
