<svg xmlns="http://www.w3.org/2000/svg" xmlns:xlink="http://www.w3.org/1999/xlink" width="190" height="190" viewBox="0 0 190 190">
  <defs>
    <filter id="Ellipse_10" x="0" y="0" width="190" height="190" filterUnits="userSpaceOnUse">
      <feOffset dy="5" input="SourceAlpha"/>
      <feGaussianBlur stdDeviation="15" result="blur"/>
      <feFlood flood-color="#ff6f9b" flood-opacity="0.451"/>
      <feComposite operator="in" in2="blur"/>
      <feComposite in="SourceGraphic"/>
    </filter>
  </defs>
  <g id="Group_50" data-name="Group 50" transform="translate(-924 -1184)">
    <g transform="matrix(1, 0, 0, 1, 924, 1184)" filter="url(#Ellipse_10)">
      <circle id="Ellipse_10-2" data-name="Ellipse 10" cx="50" cy="50" r="50" transform="translate(45 40)" fill="#ff6f9b"/>
    </g>
    <path id="Union_4" data-name="Union 4" d="M26.19,55.191a2.51,2.51,0,0,1,0-3.535l1.886-1.886a2.5,2.5,0,0,1,3.535,3.535l-1.886,1.886a2.515,2.515,0,0,1-3.535,0ZM17.759,50.31a2.512,2.512,0,0,1-.026-3.507l.026-.028,1.886-1.886a2.5,2.5,0,0,1,3.537,3.534L21.294,50.31a2.5,2.5,0,0,1-3.535,0Zm17.327-3.4-.05.059a6.938,6.938,0,0,0-6.951-2.121,6.954,6.954,0,0,0-6.657-5.1,6.945,6.945,0,0,0-5.989-6.376,6.924,6.924,0,0,0-10.27-6.5A15.368,15.368,0,1,1,26.88,5.2l-5.456,5.456L25.8,15.025a10.007,10.007,0,0,0,12.391,1.387L51.495,29.72a2.5,2.5,0,0,1-3.535,3.535l-9.821-9.821-3.12,3.12,9.82,9.821A2.5,2.5,0,0,1,41.3,39.911l-9.821-9.821-3.12,3.12s9.9,9.9,9.935,9.933l0,.006a2.511,2.511,0,0,1-1.866,4.156A2.591,2.591,0,0,1,35.085,46.915ZM10.15,42.108a2.478,2.478,0,0,1,.731-1.767l2.154-2.154.025.016a2.5,2.5,0,0,1,3.922,2.532,2.476,2.476,0,0,1-.68,1.255l-1.664,1.664a2.626,2.626,0,0,1-1.989.953H12.6A2.512,2.512,0,0,1,10.15,42.108ZM4.892,33.02c.259-.26,1.658-1.658,1.884-1.886a2.5,2.5,0,0,1,3.535,3.535L8.425,36.555a2.588,2.588,0,0,1-1.766.742A2.511,2.511,0,0,1,4.892,33.02ZM38.36,10.344,36.8,11.9a5.58,5.58,0,0,1-7.884,0l-1.251-1.25,6.169-6.17A15.352,15.352,0,1,1,54.852,26.848C54.424,26.39,39.19,11.183,38.36,10.344Z" transform="translate(989 1246.701)" fill="#fff"/>
  </g>
</svg>
