<svg xmlns="http://www.w3.org/2000/svg" xmlns:xlink="http://www.w3.org/1999/xlink" width="1920" height="650" viewBox="0 0 1920 650">
  <defs>
    <clipPath id="clip-path">
      <rect id="Rectangle_18" data-name="Rectangle 18" width="1920" height="650" transform="translate(0 110)" fill="#fff"/>
    </clipPath>
  </defs>
  <g id="Group_9804" data-name="Group 9804" transform="translate(0 -110)">
    <g id="Mask_Group_1" data-name="Mask Group 1" clip-path="url(#clip-path)">
      <path id="Union_1" data-name="Union 1" d="M0,1022.926l.361-.1.195.043L.14,1023Zm21.581-17.987.209-.072.074.043-.2.072ZM42.328,985.71l.928-.334.346.221-.919.321ZM15.364,968.738l1.61-.593.712.435-1.707.628ZM62.709,965.2l1.727-.6.642.416-1.681.628Zm-27.7-17.991c-.56-.282.158-.96,1.335-1.252a3.3,3.3,0,0,1,.5-.1c.8-.117,1.711,0,1.24.618a3.885,3.885,0,0,1-2.426.848A1.464,1.464,0,0,1,35.005,947.208Zm47.939-3.294c-.441-.3.3-.907,1.441-1.2a3.765,3.765,0,0,1,.67-.119c.7-.082,1.572.014,1.1.6a4.172,4.172,0,0,1-2.526.868A1.264,1.264,0,0,1,82.945,943.915ZM8.325,925.747l.319-.151.181.123-.407.163Zm45.9-1.632c-.735-.431.162-1.328,1.787-1.777a5.837,5.837,0,0,1,.667-.146c1.094-.161,2.333.067,1.723.911a5.049,5.049,0,0,1-3.27,1.189A1.893,1.893,0,0,1,54.221,924.114Zm48.451-2.966c-.752-.413.177-1.323,1.828-1.773a5.535,5.535,0,0,1,.694-.153c1.27-.2,2.244.11,1.68.876a5.1,5.1,0,0,1-3.305,1.216A2.009,2.009,0,0,1,102.672,921.148ZM26.519,901.527l1.1-.446.545.373-1.16.44Zm46.712-1.391c-.943-.5.141-1.63,2.081-2.16.161-.036.371-.089.532-.117,1.493-.285,3.091-.024,2.355,1.041a5.612,5.612,0,0,1-3.851,1.434A2.585,2.585,0,0,1,73.231,900.135ZM121.9,897.3c-.907-.488.2-1.631,2.067-2.148.161-.043.378-.1.539-.122,1.658-.326,3.007.048,2.33,1.023a5.763,5.763,0,0,1-3.885,1.432A2.4,2.4,0,0,1,121.9,897.3ZM44.6,876.745l1.635-.7.771.574-1.68.668Zm47.2-1.151c-1.158-.63.143-2.024,2.472-2.669.191-.05.442-.11.644-.151,1.811-.34,3.787,0,2.912,1.339a6.791,6.791,0,0,1-4.64,1.748A3,3,0,0,1,91.8,875.594Zm48.471-2.641c-1.146-.617.136-2,2.441-2.635.194-.057.459-.112.655-.162,1.962-.361,3.6.076,2.786,1.322a6.533,6.533,0,0,1-4.513,1.741A2.98,2.98,0,0,1,140.269,872.953ZM62.351,852.065c-.67-.371.024-1.155,1.352-1.519a1.507,1.507,0,0,1,.18-.043c1.089-.261,2.4-.064,1.928.725a3.779,3.779,0,0,1-2.632,1A1.752,1.752,0,0,1,62.351,852.065Zm47.422-1.5c-1.4-.768.094-2.435,2.847-3.2.12-.036.254-.067.374-.1,2.211-.51,4.865-.161,3.814,1.521-1.121,1.391-3.55,2.09-5.348,2.09A3.783,3.783,0,0,1,109.773,850.563Zm48.242-2.4c-1.328-.742.156-2.428,2.78-3.156.108-.036.261-.074.361-.1,2.468-.576,4.674-.036,3.735,1.51-1.03,1.291-3.46,2.07-5.257,2.07A3.386,3.386,0,0,1,158.015,848.159ZM79.879,826.435c-.823-.468.043-1.473,1.644-1.918,1.421-.4,3.19-.168,2.592.844a4.37,4.37,0,0,1-3.2,1.275A2.194,2.194,0,0,1,79.879,826.435Zm47.435-1.392c-1.539-.888.021-2.732,3.043-3.579,2.876-.818,5.728-.165,4.688,1.6-1.128,1.477-3.832,2.362-5.859,2.362A3.836,3.836,0,0,1,127.315,825.044Zm47.9-2.136c-1.534-.89.007-2.71,2.991-3.54,2.847-.8,5.556-.156,4.532,1.609-1.108,1.466-3.679,2.328-5.643,2.328A3.813,3.813,0,0,1,175.213,822.908ZM48.873,801.295l1.285-.546.634.474-1.3.553Zm48.006-.829c-1.083-.612-.048-1.858,2.015-2.432,1.78-.488,3.962-.228,3.192,1.121a5.343,5.343,0,0,1-3.91,1.575A2.712,2.712,0,0,1,96.88,800.466Zm47.145-1.2c-1.732-1.012.024-3.169,3.348-4.107,3-.836,6.565-.316,5.333,1.913-1.228,1.665-4.215,2.65-6.5,2.65A4.458,4.458,0,0,1,144.025,799.268Zm47.64-1.868c-1.685-1.021.043-3.143,3.29-4.066,2.907-.814,6.376-.283,5.161,1.923-1.189,1.639-4.079,2.6-6.3,2.6A4.317,4.317,0,0,1,191.665,797.4ZM65.395,775.315c-.562-.32-.063-.937.993-1.222.981-.256,1.936-.045,1.607.565a2.563,2.563,0,0,1-1.91.807A1.429,1.429,0,0,1,65.395,775.315Zm47.935-1.1c-1.288-.723-.072-2.249,2.335-2.93,2.137-.6,4.714-.234,3.888,1.36-.892,1.244-3.032,1.871-4.648,1.871A3.424,3.424,0,0,1,113.33,774.22Zm47-1.06c-1.925-1.122-.086-3.473,3.51-4.487,3.225-.9,7.109-.316,5.828,2.117-1.346,1.9-4.516,2.852-6.928,2.852A5.048,5.048,0,0,1,160.331,773.16Zm47.28-1.615c-1.919-1.119-.108-3.442,3.452-4.43,3.091-.854,6.891-.325,5.611,2.138-1.311,1.875-4.3,2.8-6.624,2.8A5,5,0,0,1,207.61,771.546ZM81.478,748.758c-.8-.433-.1-1.328,1.34-1.713,1.383-.376,2.752-.064,2.319.78a3.5,3.5,0,0,1-2.708,1.115A2.091,2.091,0,0,1,81.478,748.758Zm47.839-1.027c-1.407-.832-.064-2.571,2.563-3.339,2.555-.734,5.149-.093,4.3,1.571-.967,1.42-3.3,2.129-5.075,2.129A3.716,3.716,0,0,1,129.317,747.732Zm46.672-.861c-2.115-1.256-.208-3.763,3.7-4.887,3.8-1.086,7.515-.148,6.261,2.344-1.313,1.96-4.686,3.107-7.329,3.107A5.3,5.3,0,0,1,175.988,746.871Zm46.968-1.358c-2.057-1.259-.191-3.744,3.6-4.835,3.692-1.055,7.3-.09,6.086,2.378-1.282,1.923-4.516,3.036-7.072,3.036A5.133,5.133,0,0,1,222.956,745.513ZM48.576,722.806l.708-.346.41.3-.762.3Zm48.541-.787c-.952-.521-.1-1.65,1.606-2.122,1.514-.423,3.381-.167,2.8,1.014a4.183,4.183,0,0,1-3.228,1.344A2.536,2.536,0,0,1,97.117,722.019Zm47.461-.825c-1.674-.981-.21-2.95,2.862-3.832,2.706-.777,6.008-.254,4.989,1.854-1.014,1.528-3.664,2.423-5.754,2.423A4.281,4.281,0,0,1,144.577,721.194Zm46.375-.653c-2.3-1.38-.223-4.2,3.959-5.406,4.123-1.186,8.207-.117,6.894,2.655-1.4,2.143-5.034,3.387-7.916,3.387A5.889,5.889,0,0,1,190.953,720.541Zm46.573-1.127c-2.266-1.387-.244-4.183,3.869-5.35,3.992-1.139,7.915-.029,6.633,2.7-1.418,2.222-4.792,3.3-7.5,3.3A6.024,6.024,0,0,1,237.525,719.414Zm-173.8-23.637,1.288-.555.6.438c.005.024.012.05.017.076l-1.24.54Zm1.892-.117.076.063-.059.014C65.627,695.711,65.62,695.684,65.615,695.66Zm46.535-.373c-1.165-.665-.172-2.006,1.918-2.609,2-.562,4.109-.06,3.5,1.256A5.146,5.146,0,0,1,113.6,695.6,2.953,2.953,0,0,1,112.15,695.287Zm47.269-.73c-1.813-1.069-.227-3.274,3.031-4.207,2.907-.828,6.5-.254,5.431,2.045-1.076,1.677-3.913,2.656-6.171,2.656A4.626,4.626,0,0,1,159.419,694.557Zm46.018-.5c-2.464-1.485-.33-4.5,4.1-5.765,4.331-1.234,8.669-.069,7.344,2.856-1.437,2.286-5.23,3.6-8.276,3.6A6.3,6.3,0,0,1,205.437,694.06Zm46.222-.916c-2.4-1.507-.308-4.5,3.979-5.724,4.2-1.191,8.4.012,7.108,2.923-1.376,2.242-4.993,3.521-7.931,3.521A6.093,6.093,0,0,1,251.659,693.144ZM78.638,669.4c-.622-.347-.09-1.074,1-1.378,1.063-.3,2.142-.05,1.828.629a2.546,2.546,0,0,1-2.061.905A1.615,1.615,0,0,1,78.638,669.4Zm48.088-.851c-1.356-.764-.232-2.316,2.137-2.983,2.307-.631,4.64-.067,3.963,1.418-.806,1.28-2.813,1.905-4.407,1.905A3.608,3.608,0,0,1,126.726,668.546Zm46.846-.565c-2.082-1.225-.385-3.629,3.285-4.683,3.488-1,7.152-.055,6.13,2.279-1.17,1.881-4.3,2.972-6.814,2.972A5.218,5.218,0,0,1,173.572,667.981Zm45.692-.342c-2.655-1.636-.4-4.908,4.295-6.25,4.178-1.184,9.385-.262,7.915,3.117-1.5,2.485-5.513,3.911-8.764,3.911A6.721,6.721,0,0,1,219.264,667.639Zm46.193-.545c-3.131-1.549-1.079-5.034,3.78-6.42,4.058-1.148,9.1-.179,7.678,3.2-1.433,2.419-5.241,3.83-8.384,3.83A7.042,7.042,0,0,1,265.457,667.093ZM92.9,642.7c-.9-.461-.209-1.431,1.325-1.854,1.319-.366,2.991-.112,2.539.892a3.638,3.638,0,0,1-2.837,1.153A2.4,2.4,0,0,1,92.9,642.7Zm47.805-.777c-1.582-.87-.321-2.664,2.4-3.436,2.667-.744,5.4-.072,4.648,1.676-.845,1.364-3.2,2.158-5.1,2.158A4.162,4.162,0,0,1,140.707,641.918Zm46.492-.445c-2.278-1.3-.438-4,3.515-5.145,3.513-1.009,7.908-.27,6.714,2.555-1.227,2.028-4.612,3.2-7.362,3.2A5.881,5.881,0,0,1,187.2,641.473Zm45.3-.229c-2.924-1.739-.579-5.245,4.476-6.7,4.927-1.411,9.968-.027,8.566,3.4-1.537,2.623-5.8,4.126-9.3,4.126A7.525,7.525,0,0,1,232.494,641.244Zm45.4-.634c-2.84-1.762-.567-5.258,4.329-6.664,4.744-1.375,9.577.067,8.221,3.475-1.48,2.614-5.428,4.074-8.758,4.074A7.321,7.321,0,0,1,277.89,640.61ZM58.2,616.812l.681-.294.457.26-.763.3Zm48.6-.692c-1.022-.56-.24-1.684,1.535-2.191,1.716-.486,3.487-.07,3.005,1.043a4.18,4.18,0,0,1-3.313,1.391A2.708,2.708,0,0,1,106.8,616.119Zm47.475-.7c-1.719-.949-.342-2.961,2.579-3.782,2.613-.737,5.973-.277,5.079,1.833-.951,1.589-3.5,2.376-5.522,2.376A4.563,4.563,0,0,1,154.275,615.421Zm91.041-.543c-3.053-1.842-.679-5.526,4.548-7.033,5.091-1.47,10.36,0,8.958,3.572-1.554,2.763-5.946,4.342-9.576,4.342A7.787,7.787,0,0,1,245.316,614.878Zm-44.93.156c-2.513-1.435-.637-4.258,3.641-5.473,4.1-1.17,8.338-.06,7.212,2.715-1.263,2.172-4.841,3.421-7.768,3.42A6.327,6.327,0,0,1,200.387,615.034Zm90.3-.488c-3.577-1.744-1.434-5.676,3.952-7.247,4.924-1.428,10.008.089,8.666,3.659-1.544,2.849-5.712,4.257-9.12,4.257A8.146,8.146,0,0,1,290.684,614.546ZM71.743,590.283l1.348-.593.841.509-1.444.631Zm48.319-.43c-1.309-.691-.368-2.059,1.835-2.664,1.9-.532,4.33-.177,3.733,1.248-.69,1.146-2.536,1.708-4.016,1.708A3.548,3.548,0,0,1,120.062,589.853Zm47.133-.677c-2-1.1-.548-3.269,2.816-4.224,2.924-.825,6.645-.23,5.721,2.04-1.05,1.807-3.818,2.685-6.068,2.685A5.28,5.28,0,0,1,167.2,589.177Zm90.256-.471c-3.247-1.973-.794-5.892,4.689-7.487,5.391-1.576,10.995-.01,9.581,3.779-1.6,2.959-6.238,4.655-10.09,4.654A8.232,8.232,0,0,1,257.452,588.706Zm-44.542.127c-2.629-1.545-.625-4.645,3.84-5.916,3.989-1.146,9.085-.289,7.827,2.923-1.336,2.368-5.152,3.729-8.3,3.729A6.828,6.828,0,0,1,212.91,588.833Zm89.446-.436c-3.855-1.867-1.66-6.068,4.048-7.737,5.206-1.526,10.59,0,9.21,3.882-1.617,3.113-5.915,4.582-9.481,4.582A8.834,8.834,0,0,1,302.355,588.4ZM35.508,566.072l.387-.168.223.148-.371.13ZM84.9,564.7c-.572-.383-.017-1.091,1.082-1.385.929-.244,2.476-.176,2.115.668a2.866,2.866,0,0,1-2.273.924A1.742,1.742,0,0,1,84.9,564.7ZM133,563.8c-1.428-.746-.381-2.313,2.015-2.978,2.1-.584,4.847-.23,4.175,1.43-.708,1.194-2.775,1.9-4.463,1.9A3.767,3.767,0,0,1,133,563.8Zm46.628-.6c-2.161-1.2-.553-3.638,3.063-4.663,3.213-.911,7.343-.251,6.371,2.263-1.063,1.873-4.184,2.958-6.752,2.958A5.686,5.686,0,0,1,179.625,563.2Zm89.5-.579c-3.431-2.052-.954-6.13,4.738-7.8,4.984-1.464,11.509-.426,9.958,3.944-1.609,3.072-6.372,4.828-10.357,4.828A8.655,8.655,0,0,1,269.13,562.624Zm-44.094.162c-2.826-1.6-.759-4.86,3.933-6.219,4.182-1.207,9.57-.306,8.3,3.081-1.349,2.473-5.362,3.9-8.688,3.9A7.3,7.3,0,0,1,225.036,562.787Zm88.5-.526c-3.91-1.911-1.678-6.365,4.045-8.08,4.824-1.444,11.067-.208,9.638,4.047-1.587,3.194-6.113,4.769-9.851,4.769A8.953,8.953,0,0,1,313.531,562.26ZM49,540.233l.384-.163.227.133-.383.17Zm48.82-1.16c-.846-.452-.222-1.361,1.211-1.784,1.275-.368,2.965-.135,2.574.823a3.487,3.487,0,0,1-2.772,1.161A2.233,2.233,0,0,1,97.82,539.073Zm47.507-.892c-1.648-.871-.447-2.672,2.3-3.453,2.445-.69,5.587-.235,4.843,1.65-.8,1.387-3.2,2.2-5.153,2.2A4.4,4.4,0,0,1,145.326,538.181Zm46.335-.708c-2.4-1.292-.746-3.853,3.213-4.987,3.427-.99,7.869-.289,6.855,2.411-1.112,2-4.464,3.159-7.221,3.159A6.139,6.139,0,0,1,191.661,537.473Zm44.893-.433c-3.06-1.736-.944-5.166,4.1-6.657,4.414-1.305,10.145-.358,8.845,3.277-1.409,2.663-5.654,4.2-9.182,4.2A7.693,7.693,0,0,1,236.554,537.04Zm43.612-.265c-3.632-2.177-1.146-6.408,4.847-8.233,5.793-1.758,11.932-.076,10.538,4.124-1.65,3.269-6.637,5.143-10.826,5.143A9.06,9.06,0,0,1,280.165,536.775Zm43.86-.479c-4.171-2.035-1.95-6.68,4.105-8.575,5.554-1.732,11.466.011,10.146,4.238-1.534,3.237-6.263,5.123-10.293,5.123A9.192,9.192,0,0,1,324.025,536.3Zm-262.5-21.41,1.04-.451.638.373-1.048.453Zm48.384-1.076c-.933-.575-.117-1.627,1.639-2.115,1.773-.5,3.738-.1,3.3,1.008-.556.934-2.183,1.41-3.487,1.41A2.917,2.917,0,0,1,109.912,513.811Zm47.275-.881c-1.919-.971-.619-2.944,2.536-3.843,3.007-.855,6.209-.134,5.475,1.813-.891,1.564-3.536,2.469-5.741,2.469A5.229,5.229,0,0,1,157.187,512.93Zm45.937-.806c-2.56-1.358-.794-4.164,3.386-5.365,3.692-1.057,8.5-.33,7.448,2.579-1.164,2.147-4.778,3.4-7.765,3.4A6.75,6.75,0,0,1,203.124,512.124Zm44.508-.6c-3.21-1.753-1.029-5.377,4.159-6.922,4.588-1.369,10.58-.4,9.307,3.358-1.492,2.91-5.948,4.346-9.573,4.346A8.421,8.421,0,0,1,247.632,511.521Zm43.006-.378c-3.9-2.253-1.373-6.68,4.925-8.635,6-1.861,12.427-.132,11.041,4.247-1.762,3.651-6.881,5.423-11.152,5.422A9.961,9.961,0,0,1,290.638,511.143Zm43.324-.7c-4.412-2.1-2.175-6.975,4.116-9.01,5.747-1.856,11.968-.079,10.688,4.348-1.629,3.612-6.638,5.426-10.763,5.426A9.641,9.641,0,0,1,333.962,510.44ZM73.705,490.11l1.593-.679.891.565-1.515.647Zm48.13-1.049c-1.052-.637-.124-1.852,1.84-2.4,1.862-.517,4.285-.21,3.735,1.158-.585,1.011-2.431,1.6-3.933,1.6A3.218,3.218,0,0,1,121.835,489.061Zm46.871-.988c-2.03-1.015-.639-3.153,2.641-4.1,2.959-.847,6.831-.321,6,1.928-.929,1.657-3.839,2.632-6.229,2.632A5.535,5.535,0,0,1,168.706,488.074Zm45.465-.934c-2.746-1.394-.918-4.333,3.484-5.625,3.859-1.122,8.91-.386,7.86,2.667-1.269,2.4-5.008,3.578-8.074,3.578A7.547,7.547,0,0,1,214.17,487.14Zm44.033-.808c-3.326-1.8-1.123-5.559,4.206-7.183,4.726-1.437,10.925-.469,9.655,3.437-1.429,2.878-6.056,4.566-9.907,4.566A8.521,8.521,0,0,1,258.2,486.332Zm42.465-.638c-4.005-2.284-1.5-6.856,4.891-8.9,5.539-1.773,12.875-.553,11.43,4.3-1.645,3.563-7.049,5.642-11.585,5.642A9.754,9.754,0,0,1,300.668,485.694Zm42.7-1.012c-4.568-2.122-2.381-7.181,4.042-9.326,5.9-1.973,12.265-.3,10.994,4.408-1.548,3.638-6.551,5.728-10.878,5.727A9.985,9.985,0,0,1,343.37,484.682ZM85.758,466.419c-.576-.334-.081-.968,1-1.272,1.144-.311,2.341-.081,2.077.584a2.829,2.829,0,0,1-2.208.866A1.818,1.818,0,0,1,85.758,466.419Zm47.408-1.5c-1.265-.739-.189-2.15,2.128-2.786,2.189-.6,5.055-.254,4.46,1.3-.684,1.188-2.886,1.891-4.674,1.891A3.9,3.9,0,0,1,133.167,464.914Zm46.3-1.353c-1.824-1.129-.268-3.251,3.063-4.2,3.146-.9,7.285-.361,6.434,1.99-.975,1.784-4.111,2.833-6.682,2.833A5.476,5.476,0,0,1,179.463,463.561Zm45.19-.945c-2.981-1.495-1.11-4.569,3.632-5.982,4.555-1.35,9.473-.256,8.477,2.76-1.256,2.428-5.378,3.869-8.766,3.869A7.648,7.648,0,0,1,224.653,462.616Zm43.508-1.084c-3.546-1.887-1.347-5.767,4.273-7.534,4.927-1.545,11.438-.593,10.184,3.487-1.475,3.073-6.351,4.891-10.394,4.89A8.772,8.772,0,0,1,268.161,461.532Zm41.831-.955c-4.149-2.291-1.577-7.159,4.917-9.3,5.685-1.871,13.38-.863,11.932,4.319-1.771,4.027-7.33,6.015-11.932,6.015A10.432,10.432,0,0,1,309.992,460.578Zm42.1-1.428c-4.764-2.15-2.592-7.452,4-9.775,5.422-1.9,12.789-.862,11.487,4.432-1.639,4.1-6.957,6.109-11.347,6.109A10.234,10.234,0,0,1,352.094,459.15ZM48.685,444.9l.48-.2.357.149-.561.234Zm48.369-1.876c-.789-.436-.127-1.275,1.328-1.656,1.5-.394,3.111-.139,2.771.725a3.61,3.61,0,0,1-2.908,1.165A2.546,2.546,0,0,1,97.054,443.029Zm47.059-1.682c-1.433-.844-.249-2.4,2.383-3.136,2.467-.7,5.73-.34,5.087,1.411-.779,1.364-3.3,2.171-5.33,2.171A4.39,4.39,0,0,1,144.113,441.347Zm45.819-1.578c-1.962-1.211-.3-3.5,3.288-4.538,3.417-.988,7.963-.449,7.078,2.079-1.055,1.958-4.518,3.125-7.34,3.125A5.935,5.935,0,0,1,189.933,439.769Zm44.782-1.271c-3.164-1.526-1.263-4.723,3.7-6.214,4.761-1.433,9.887-.414,8.868,2.762-1.365,2.719-5.632,4.088-9.088,4.087A8.313,8.313,0,0,1,234.714,438.5Zm42.838-1.38c-3.78-1.923-1.534-5.987,4.355-7.891,5.125-1.65,11.977-.737,10.755,3.5-1.505,3.26-6.7,5.218-10.982,5.217A9.2,9.2,0,0,1,277.553,437.118Zm41.328-1.451c-4.3-2.323-1.809-7.234,4.84-9.539,5.8-2,13.607-.912,12.3,4.219-1.659,3.952-7.542,6.325-12.421,6.325A10.078,10.078,0,0,1,318.881,435.667Zm41.393-1.95c-4.866-2.124-2.759-7.587,3.886-10.072,6.116-2.284,12.877-.705,11.763,4.332-1.616,4.313-7.143,6.459-11.652,6.459A10.162,10.162,0,0,1,360.274,433.717Zm-300.219-11.5,1.029-.416.631.317-1.012.416Zm48.095-1.954c-.9-.492-.117-1.473,1.521-1.909,1.589-.423,3.708-.255,3.285.835-.494.835-2.137,1.337-3.455,1.337A2.946,2.946,0,0,1,108.15,420.265Zm46.613-1.928c-1.562-.88-.3-2.54,2.536-3.346,2.653-.751,6.176-.38,5.494,1.488-.827,1.456-3.545,2.33-5.741,2.33A4.75,4.75,0,0,1,154.763,418.337Zm45.276-1.841c-2.16-1.256-.478-3.612,3.408-4.756,3.6-1.057,8.371-.524,7.489,2.112-1.093,2.056-4.8,3.291-7.8,3.291A6.4,6.4,0,0,1,200.039,416.5Zm44.179-1.593c-3.345-1.557-1.4-4.911,3.8-6.533,4.472-1.384,10.54-.813,9.43,2.808-1.325,2.707-5.973,4.363-9.754,4.363A8.428,8.428,0,0,1,244.218,414.9Zm42.326-1.878c-3.879-1.92-1.653-6.087,4.323-8.1,5.2-1.749,12.274-1.05,11.041,3.447-1.495,3.382-6.885,5.452-11.291,5.452A9.289,9.289,0,0,1,286.545,413.024Zm40.536-1.9c-4.505-2.32-2.036-7.419,4.817-9.917,6.589-2.4,13.9-.929,12.7,4.167-1.656,4.206-7.687,6.743-12.744,6.743A10.538,10.538,0,0,1,327.08,411.123Zm40.662-2.579c-5.037-2.1-2.977-7.8,3.8-10.5,6.225-2.49,13.217-.993,12.172,4.26-1.586,4.586-7.411,6.918-12.1,6.918A10.2,10.2,0,0,1,367.742,408.544ZM71.18,400.7c-.476-.258-.087-.722.8-.959.931-.244,1.986-.1,1.79.38a2.657,2.657,0,0,1-1.921.707A1.47,1.47,0,0,1,71.18,400.7Zm47.514-2.432c-1.11-.572-.218-1.682,1.813-2.23,2.084-.557,4.371-.213,3.933.926-.6,1-2.555,1.608-4.137,1.608A3.654,3.654,0,0,1,118.694,398.269Zm46.128-2.217c-1.756-.918-.361-2.758,2.78-3.655,2.955-.835,6.9-.471,6.183,1.548-.9,1.588-4.027,2.569-6.521,2.569A5.516,5.516,0,0,1,164.822,396.051Zm44.8-2.234c-2.294-1.266-.5-3.793,3.561-5.023,3.85-1.15,9-.66,8.106,2.117-1.152,2.208-5.2,3.559-8.442,3.559A6.87,6.87,0,0,1,209.622,393.817Zm43.16-2.253c-2.893-1.679-.757-4.932,4.314-6.575,5.223-1.689,10.951-.73,9.936,2.755-1.362,2.885-6.323,4.662-10.313,4.662A8.04,8.04,0,0,1,252.782,391.564Zm42.082-2.16c-4.109-1.9-1.878-6.229,4.352-8.412,5.359-1.878,12.743-1.286,11.568,3.341-1.611,3.818-7.3,5.813-11.822,5.813A10.019,10.019,0,0,1,294.864,389.4Zm39.855-2.545c-4.652-2.286-2.214-7.556,4.742-10.252,5.979-2.315,14.284-1.629,13.085,4-1.733,4.679-8.144,7.131-13.253,7.131A10.624,10.624,0,0,1,334.718,386.859Zm39.868-3.332c-5.178-2.035-3.2-7.95,3.642-10.9,5.632-2.423,13.542-1.765,12.535,4.068-1.555,4.884-7.7,7.436-12.542,7.435A10.055,10.055,0,0,1,374.587,383.527ZM81.842,379.669c-.536-.314.01-.877,1.129-1.179,1.2-.32,2.515-.154,2.256.476a3.258,3.258,0,0,1-2.459.872A2,2,0,0,1,81.842,379.669Zm46.893-2.721c-1.05-.679.012-1.854,2.23-2.467,2.442-.671,5.113-.3,4.625,1.017-.7,1.155-3.066,1.853-4.923,1.853A3.8,3.8,0,0,1,128.735,376.948Zm45.851-2.541c-1.94-.967-.519-2.832,2.932-3.842s7.283-.445,6.592,1.538c-.96,1.72-4.275,2.779-6.941,2.779A6.056,6.056,0,0,1,174.586,374.407Zm44.224-2.679c-2.452-1.29-.646-3.87,3.668-5.21,3.977-1.237,9.355-.8,8.46,2.072-1.185,2.31-5.5,3.762-8.919,3.761A7.127,7.127,0,0,1,218.81,371.728Zm42.494-2.76c-3.02-1.669-.869-5.011,4.336-6.755,5.371-1.8,11.329-.937,10.362,2.6-1.388,3.029-6.668,4.946-10.841,4.946A8.215,8.215,0,0,1,261.3,368.968Zm41.451-2.818c-4.166-1.842-1.964-6.276,4.283-8.611,6.059-2.272,12.837-1.244,11.817,3.153-1.615,4.006-7.554,6.143-12.19,6.143A9.9,9.9,0,0,1,302.755,366.15Zm39.058-3.275c-4.747-2.208-2.39-7.59,4.591-10.472,6.726-2.775,14.359-1.581,13.356,3.715-1.609,4.637-8.208,7.6-13.588,7.6A10.44,10.44,0,0,1,341.813,362.876ZM92.128,359.592c-.667-.387.019-1.1,1.421-1.471,1.428-.389,3.318-.284,2.967.57-.439.679-2.048,1.112-3.253,1.112A2.448,2.448,0,0,1,92.128,359.592Zm288.68-.918c-5.371-1.986-3.534-7.937,3.434-11.185,6.3-2.925,13.583-1.751,12.763,3.751-1.495,5.168-7.909,7.959-12.867,7.958A9.754,9.754,0,0,1,380.808,358.673Zm-242.2-2.205c-1.191-.691-.033-1.95,2.435-2.641,2.68-.737,5.592-.4,5.042,1.048-.746,1.226-3.4,1.992-5.449,1.992A4.235,4.235,0,0,1,138.6,356.468Zm44.975-3.062c-1.686-1.034-.074-2.921,3.383-3.959,3.761-1.12,7.925-.586,7.207,1.541-1.041,1.86-4.793,3.016-7.7,3.016A5.781,5.781,0,0,1,183.578,353.406Zm43.872-3.055c-2.615-1.287-.739-3.99,3.793-5.468,4.651-1.5,9.872-.8,9.027,2.012-1.233,2.46-5.943,4.051-9.6,4.051A7.5,7.5,0,0,1,227.45,350.352Zm41.819-3.4c-3.149-1.643-.964-5.129,4.4-7.037,5.544-1.973,11.731-1.186,10.782,2.5-1.416,3.2-7.044,5.282-11.411,5.282A8.344,8.344,0,0,1,269.269,346.955Zm-214.52-3.114,1.1-.434.752.271-1.168.441Zm255.21-.426c-4.33-1.784-2.149-6.357,4.25-8.9,6.195-2.459,13.222-1.574,12.26,2.952-1.522,3.989-7.763,6.6-12.742,6.6A10.015,10.015,0,0,1,309.959,343.415Zm-207.949-2.992c-.924-.5.165-1.306,1.745-1.742,1.9-.5,4.005-.308,3.615.625-.542.825-2.516,1.358-4,1.358A3.11,3.11,0,0,1,102.009,340.423Zm246.213-1.114c-4.862-2.115-2.579-7.662,4.441-10.8,6.774-3.031,14.569-2.026,13.66,3.406-1.653,5.193-8.734,8.1-14.12,8.1A10.159,10.159,0,0,1,348.222,339.308ZM148,336.88c-1.33-.744-.046-2.117,2.687-2.885,2.68-.756,6.315-.6,5.7,1.027-.838,1.386-3.9,2.267-6.215,2.267A4.714,4.714,0,0,1,148,336.88Zm238.281-2.765c-5.465-1.84-3.742-8.021,3.232-11.591,6.314-3.222,13.71-2.258,13.029,3.437-1.424,5.5-8.195,8.589-13.284,8.589A9.435,9.435,0,0,1,386.285,334.115Zm-193.776-.87c-1.76-1.041-.086-2.983,3.491-4.083,3.535-1.088,8.338-.88,7.566,1.428-1.077,1.971-5.12,3.233-8.192,3.233A5.892,5.892,0,0,1,192.51,333.245Zm43.085-3.6c-2.794-1.275-.857-4.093,3.9-5.693,4.857-1.624,10.34-1.028,9.52,1.858-1.294,2.661-6.309,4.406-10.189,4.406A7.976,7.976,0,0,1,235.595,329.64ZM65.131,326.509c-.263-.165.041-.5.888-.72s1.984-.206,1.775.2a3.064,3.064,0,0,1-2.032.632A1.265,1.265,0,0,1,65.131,326.509Zm211.641-1.034c-3.28-1.576-1.105-5.135,4.376-7.182,5.635-2.1,12-1.474,11.126,2.231-1.438,3.394-7.281,5.647-11.811,5.647A8.657,8.657,0,0,1,276.772,325.475Zm-165.073-3.2c-.7-.472.242-1.294,2.075-1.785,1.947-.524,4.551-.49,4.1.543-.647.937-2.983,1.541-4.655,1.541A2.978,2.978,0,0,1,111.7,322.271Zm204.9-1.115c-4.469-1.7-2.329-6.417,4.168-9.173,6.29-2.679,13.482-1.978,12.611,2.629-1.5,4.227-8.128,7.105-13.291,7.105A9.912,9.912,0,0,1,316.6,321.156Zm-159.457-2.983c-1.45-.734-.12-2.112,2.854-2.966,3.192-.921,6.7-.684,6.1.893-.908,1.462-4.337,2.443-6.839,2.443A4.932,4.932,0,0,1,157.146,318.173Zm196.9-2.145c-5.008-2-2.876-7.568,4.244-11.039,6.748-3.275,14.614-2.538,13.839,2.978-1.482,5.136-8.727,8.694-14.4,8.693A9.973,9.973,0,0,1,354.046,316.028Zm-153.22-2.1c-1.887-1.023-.124-3.057,3.675-4.262,3.779-1.191,9-1.177,8.186,1.279-1.154,2.126-5.643,3.535-8.974,3.535A6.256,6.256,0,0,1,200.826,313.925ZM75.32,310.414c-.4-.235.189-.675,1.232-.945,1-.258,2.711-.366,2.4.22a4.775,4.775,0,0,1-2.88.855A1.61,1.61,0,0,1,75.32,310.414Zm315.8-.706c-5.516-1.669-3.939-7.994,2.95-11.883,6.386-3.6,13.715-2.935,13.172,2.964-1.226,5.446-8.037,9.287-13.443,9.286A9.307,9.307,0,0,1,391.123,309.708Zm-147.737-.141c-2.888-1.222-.951-4.088,3.9-5.8,5.005-1.765,10.631-1.349,9.82,1.619-1.314,2.788-6.651,4.691-10.674,4.691A7.977,7.977,0,0,1,243.386,309.567Zm-122.175-4.011c-.857-.469.255-1.361,2.409-1.945,2.213-.6,5.218-.656,4.682.49-.762,1.021-3.567,1.727-5.506,1.727A3.571,3.571,0,0,1,121.211,305.556Zm162.466-.912c-3.371-1.514-1.2-5.176,4.363-7.4,5.764-2.3,12.329-1.849,11.508,1.926-1.446,3.6-7.7,6.093-12.41,6.092A8.6,8.6,0,0,1,283.677,304.644Zm-117.9-4c-1.18-.744.342-2.1,3.328-2.983,3.113-.923,7.37-1.014,6.659.737-1.024,1.586-5.01,2.675-7.747,2.675A4.533,4.533,0,0,1,165.779,300.642Zm156.954-1.32c-4.647-1.595-2.625-6.3,4-9.318,6.295-2.873,13.6-2.421,12.853,2.184-1.465,4.43-8.461,7.592-13.75,7.592A9.655,9.655,0,0,1,322.733,299.322Zm-113.82-3.645c-2-.951-.162-3.023,3.869-4.351,3.963-1.305,9.454-1.458,8.61,1.021-1.244,2.208-6.3,3.779-9.84,3.779A6.4,6.4,0,0,1,208.914,295.677Zm-123.6-.067c-.366-.265.354-.727,1.666-1.074,1.589-.409,3.424-.4,3.079.168-.543.62-2.566,1.073-3.821,1.073A1.8,1.8,0,0,1,85.313,295.61Zm273.92-2.48c-5.058-1.827-3.055-7.5,3.972-11.233,6.092-3.236,14.626-3.64,13.944,2.43-1.483,5.733-9.268,9.277-14.817,9.276A9.216,9.216,0,0,1,359.233,293.13Zm-109.038-2.944c-2.453-1.211-.337-3.93,4.429-5.7,4.635-1.705,11.134-1.945,10.258,1.268-1.372,2.888-7.4,4.987-11.628,4.987A7.066,7.066,0,0,1,250.195,290.186Zm-119.447-.067c-.866-.455.352-1.4,2.608-2.007,2.4-.667,5.661-.816,5.079.337-.861,1.1-4.118,1.913-6.2,1.913A3.447,3.447,0,0,1,130.748,290.119Zm-81.211-1.9,1.153-.367.736.112-1.173.364Zm345.7-2.663c-5.539-1.445-4.138-7.913,2.62-12.145,6.262-3.908,13.588-3.575,13.227,2.383-1.175,6.157-8.569,10.009-13.758,10.009A8.28,8.28,0,0,1,395.236,285.553ZM290.1,284.376c-3.524-1.373-1.428-4.978,4.314-7.415,5.305-2.25,12.565-2.617,11.731,1.476-1.422,3.7-8.111,6.433-12.969,6.433A8.523,8.523,0,0,1,290.1,284.376Zm-115.63.091c-1.256-.7.368-2.11,3.561-3.083,3.33-1.019,7.891-1.244,7.145.519-1.151,1.678-5.718,2.925-8.646,2.925A4.55,4.55,0,0,1,174.474,284.467Zm-79.006-2.323c-.416-.268.431-.78,1.891-1.163.079-.024.177-.043.256-.067,1.562-.371,3.641-.488,3.242.143-.649.675-3.139,1.235-4.532,1.235A1.725,1.725,0,0,1,95.468,282.144Zm121.1-3.711c-1.6-.94.366-2.863,4.27-4.2,4.1-1.4,9.772-1.746,8.94.656-1.345,2.305-7,4.035-10.648,4.034A5.316,5.316,0,0,1,216.568,278.434Zm111.57-.387c-4.726-1.4-2.783-6.2,3.866-9.51,5.778-2.872,13.842-3.427,13.123,1.7-1.494,4.953-9.159,8.145-14.4,8.145A9.144,9.144,0,0,1,328.139,278.046ZM60.155,276.81c-.225-.1.263-.354,1.043-.551a6.908,6.908,0,0,1,1.124-.188c.266-.029.864-.05.677.175a5.626,5.626,0,0,1-2.489.614A.89.89,0,0,1,60.155,276.81Zm79.855-.934c-.667-.461.627-1.332,2.951-1.987,2.584-.727,6.135-1,5.517.15-.987,1.172-4.8,2.1-7.023,2.1A2.842,2.842,0,0,1,140.01,275.876Zm117.236-3.793c-2.5-1.114-.426-3.763,4.479-5.693,4.687-1.84,11.27-2.323,10.416.791-1.426,2.992-7.967,5.331-12.276,5.331A6.759,6.759,0,0,1,257.246,272.083Zm106.421-1.416c-5.151-1.608-3.27-7.427,3.7-11.508,6.08-3.547,14.679-4.334,14.168,1.83-1.358,6.054-9.608,10.035-15.253,10.035A8.762,8.762,0,0,1,363.667,270.668Zm-258.329-.658c-.5-.264.5-.833,2.254-1.29.426-.115.845-.2,1.269-.28,1.342-.247,3.3-.4,2.861.22-.811.772-3.948,1.471-5.557,1.471A2.007,2.007,0,0,1,105.338,270.01Zm77.721-.534c-1.319-.636.387-2.054,3.73-3.095,3.494-1.091,8.284-1.49,7.51.22-1.244,1.736-6.393,3.153-9.447,3.153A4.5,4.5,0,0,1,183.059,269.476ZM70.627,266.591c-.2-.138.6-.438,1.474-.653a10.923,10.923,0,0,1,2-.327c.447-.007.622.05.486.191a9.174,9.174,0,0,1-3.57.85A.8.8,0,0,1,70.627,266.591Zm-33.91-1.1.486-.012-.813.224-.48.005Zm259.354-.34c-3.579-1.2-1.479-4.835,4.338-7.48,5.359-2.449,12.751-3.155,11.951.876-1.562,4.115-9.014,6.939-13.833,6.939A7.893,7.893,0,0,1,296.072,265.152ZM149.164,263c-.729-.438.7-1.358,3.243-2.1.277-.089.641-.184.917-.256,2.885-.712,5.675-.8,5.072.206-1.126,1.255-5.593,2.357-7.958,2.357A2.8,2.8,0,0,1,149.164,263Zm75.14-.49c-1.62-.852.378-2.77,4.369-4.206,4.171-1.5,9.975-2.066,9.135.256-1.418,2.379-7.6,4.334-11.312,4.333A4.973,4.973,0,0,1,224.3,262.506Zm174.205-.8c-5.733-1.2-4.529-7.726,2.289-12.476,5.516-3.842,13.565-4.8,13.368,1.743-1.019,6.529-8.795,10.89-14.05,10.89A7.821,7.821,0,0,1,398.509,261.71Zm-283.2-2.62c-.52-.239.569-.825,2.488-1.353a21.5,21.5,0,0,1,2.766-.544c.659-.076,2.125-.2,1.711.333-.943.822-4.592,1.658-6.264,1.658A1.9,1.9,0,0,1,115.308,259.09Zm-66.759-.79.9-.065-1.48.39-.845.066Zm32.72-.659c-.165-.124.548-.423,1.7-.715a11.942,11.942,0,0,1,2.738-.431c.344.017.229.12.182.163a13,13,0,0,1-4.319,1.03A.6.6,0,0,1,81.27,257.641Zm251.2-.4c-3.967-1.418-1.845-5.918,4.364-9.262,5.733-3.093,13.793-4.075,13.161.911-1.466,5.152-9.605,8.737-14.915,8.737A7.858,7.858,0,0,1,332.474,257.239Zm-141.307-1.62c-.978-.621.838-1.971,4.151-3.066,3.675-1.208,8.731-1.8,7.922-.1-1.389,1.843-7.222,3.472-10.362,3.472A3.5,3.5,0,0,1,191.167,255.619Zm-153.649.011,1.037-.229-.622.166-.978.217Zm226.37-.525c-2.589-.961-.453-3.643,4.57-5.735,4.924-2.055,11.611-2.849,10.774.254-1.529,3.171-8.589,5.816-13.047,5.816A6.781,6.781,0,0,1,263.888,255.105Zm-190.755.132c.059-.314,3.23-1.167,3.924-1.129.026.007.079,0,.089.043a8.345,8.345,0,0,1-2.45.873,9.115,9.115,0,0,1-1.4.24A.352.352,0,0,1,73.133,255.237Zm-23.256-1.123,1.473-.313-.841.274-1.4.3Zm11.118.116a13.125,13.125,0,0,1,3.333-.894c.011,0,.036.011.052.014a8.952,8.952,0,0,1-2.086.67,8.336,8.336,0,0,1-1.221.219A.246.246,0,0,1,60.995,254.23Zm-2.634-1.277a7.369,7.369,0,0,1,1.184-.352,10.716,10.716,0,0,1,1.967-.352.325.325,0,0,0-.056.031,18.62,18.62,0,0,1-3.03.682A.131.131,0,0,1,58.36,252.953Zm99.782-1.631c-.787-.387.759-1.332,3.543-2.182q.99-.293,2.022-.524c2.618-.581,5.082-.715,4.505.187-1.286,1.332-6.562,2.67-9.024,2.67A2.656,2.656,0,0,1,158.142,251.322Zm-66.5-1.387a8.119,8.119,0,0,1,2.112-.758c.713-.177,3.405-.809,3.621-.536a.527.527,0,0,1-.079.081A20.093,20.093,0,0,1,91.956,250C91.786,250,91.673,249.98,91.638,249.934Zm33.275-.531c-.4-.256,1.16-.886,2.914-1.373a22.936,22.936,0,0,1,4.034-.792c1.388-.1,1.122.213,1.022.32-1.163.916-5.614,1.946-7.344,1.946A1.3,1.3,0,0,1,124.912,249.4Zm242.475-.7c-5.223-1.356-3.5-7.116,3.5-11.636,5.979-3.846,14.584-5.147,14.225.944-1.26,6.382-10.023,10.923-15.706,10.923A8.15,8.15,0,0,1,367.388,248.707Zm-297.859-.254a6.913,6.913,0,0,1,1.56-.412c.634-.162,2.483-.6,2.594-.569a.506.506,0,0,1-.057.029c-.59.187-3.72.952-4.083.952Zm162.12-.7c-1.734-.734.307-2.657,4.542-4.262,4.443-1.7,10.4-2.512,9.53-.191-1.539,2.495-8.333,4.746-12.172,4.746A5,5,0,0,1,231.649,247.755Zm69.622-1.035c-2.94-1.174-.7-4.574,4.767-7.257,5.348-2.624,12.738-3.693,12.006.194-1.5,4.052-9.282,7.471-14.257,7.471A6.806,6.806,0,0,1,301.271,246.72ZM82.1,244.827l1.743-.439,1.286-.324c.118-.032.222-.058.333-.084-.949.256-1.9.487-2.852.727-.614.155-1.217.308-1.825.449C81.22,245.031,81.665,244.94,82.1,244.827Zm3.486-.88c-.017.005-.057.015-.083.024l-.041.009Zm16.6-.483a11.667,11.667,0,0,1,2.338-.79c.782-.208,3.733-.94,3.972-.739a.426.426,0,0,1-.086.071,29.394,29.394,0,0,1-6.032,1.5C102.273,243.5,102.206,243.491,102.184,243.464Zm97.185-.476c-1.019-.533.871-1.878,4.307-3.074.194-.069.427-.149.613-.21,3.608-1.16,8.331-1.852,7.53-.268-1.533,1.922-7.9,3.781-11.037,3.781A3.307,3.307,0,0,1,199.369,242.988Zm-107.474.1a54.261,54.261,0,0,1,5.644-1.536.473.473,0,0,1,.094.008c-.218.129-2.1.664-3.565,1.042-.439.113-1.906.486-2.162.486Zm22.218-.622c.177-.521,5.835-2.227,7.022-2.234a.565.565,0,0,1,.127.024c-.127.387-2.917,1.3-4.381,1.71a16.169,16.169,0,0,1-2.565.532A.444.444,0,0,1,114.114,242.466Zm-11.176-.246c.177-.338,5.4-1.811,6.491-1.913a.749.749,0,0,1,.1.021,20.733,20.733,0,0,1-4.039,1.378,19.381,19.381,0,0,1-2.466.523A.312.312,0,0,1,102.938,242.221Zm31.617-1.249c-.383-.2.957-.794,3.194-1.442a25.149,25.149,0,0,1,5.158-1.029c.653-.007.453.189.361.285-1.336.954-6.668,2.241-8.3,2.241A1.062,1.062,0,0,1,134.555,240.972Zm32.471-.251c-.486-.366,1.115-1.253,3.816-2.1a31.47,31.47,0,0,1,4.177-1.028c.974-.166,3.19-.453,2.613.359-1.472,1.417-7.33,2.938-9.7,2.938A1.707,1.707,0,0,1,167.026,240.721Zm102.861-1.665c-2.06-.944.2-3.473,5.005-5.628,5-2.239,11.8-3.361,10.982-.32-1.593,3.3-9.39,6.314-13.836,6.314A5.26,5.26,0,0,1,269.887,239.055Zm131.106-.854c-5.68-.906-4.666-7.578,1.936-12.741,6.087-4.762,13.445-5.439,13.466.861-.775,6.495-8.466,11.975-14.158,11.975A7.944,7.944,0,0,1,400.992,238.2Zm-288.532.048a20.969,20.969,0,0,1,2.7-.847,36.554,36.554,0,0,1,4.489-1.023l-.1.06a48.5,48.5,0,0,1-7.008,1.822A.2.2,0,0,1,112.461,238.249Zm224.495-.588c-4.056-1.18-2.031-5.621,4.242-9.326,5.7-3.351,13.777-4.81,13.241.069-1.443,5.378-10.187,9.505-15.493,9.505A7.184,7.184,0,0,1,336.956,237.661Zm-98.045-3.612c-1.733-.6.323-2.512,4.591-4.251,4.479-1.829,10.506-2.92,9.645-.691-1.61,2.553-9,5.137-12.778,5.137A4.514,4.514,0,0,1,238.911,234.05Zm-113.18-.735a48.932,48.932,0,0,1,4.965-1.332.553.553,0,0,0-.079.024c-1.165.4-7.446,2.186-7.868,2.186C123.73,233.853,124.73,233.6,125.731,233.315Zm18.351.3c.228-.354,2.514-1.081,3.487-1.373,1.169-.349,5.594-1.581,5.993-1.2a.8.8,0,0,1-.127.127,34.03,34.03,0,0,1-8.973,2.525A.6.6,0,0,1,144.082,233.616Zm63.217-2.1c-1.082-.433.846-1.782,4.483-3.116.648-.235,1.289-.455,1.945-.653,3.194-.978,7.357-1.71,6.575-.294-1.726,2.09-9.167,4.188-12.085,4.188A2.58,2.58,0,0,1,207.3,231.521Zm-31.56-.12c-.51-.3,1.187-1.2,4.041-2.15a36.038,36.038,0,0,1,5.754-1.445c1.977-.255,1.61.215,1.479.38-1.579,1.4-8.467,3.308-10.683,3.308A1.316,1.316,0,0,1,175.74,231.4Zm-34.362-2.647a.381.381,0,0,1,.089-.012c-.261.162-3.988,1.3-5.239,1.669-1.063.316-2.123.672-3.211.889C133.385,231.071,141.3,228.776,141.378,228.754Zm165.133.8c-2.95-.971-.727-4.387,4.757-7.324,5.3-2.837,12.87-4.511,12.168-.553-1.52,4.208-9.954,8.145-14.966,8.145A6.356,6.356,0,0,1,306.511,229.551Zm-163.429.043c.273-.38,7.695-2.779,9.1-3.025a.2.2,0,0,1,.129.022,41.829,41.829,0,0,1-5.726,2.085,29.5,29.5,0,0,1-3.462.921A.267.267,0,0,1,143.082,229.593Zm10.059-.6c.292-.636,8.03-3.315,9.483-3.452a.35.35,0,0,1,.157.034c-.2.466-4.012,1.892-5.921,2.523a22.04,22.04,0,0,1-3.563.918A.388.388,0,0,1,153.141,228.993Zm217.544-1.514c-5.166-.983-3.561-6.714,3.247-11.575,6.551-4.683,14.3-5.779,14.095-.109-1.156,6.613-10.38,11.8-15.978,11.8A7.348,7.348,0,0,1,370.685,227.479Zm-217.2.067a20.311,20.311,0,0,1,3.753-1.418c.057-.019,5.944-1.849,6.393-1.576-.04.041-.1.076-.129.108a47.477,47.477,0,0,1-9.845,2.916A.353.353,0,0,1,153.488,227.546Zm122.535-3.355c-2.024-.8.2-3.328,4.981-5.638,5.015-2.426,11.889-3.921,11.1-1-1.654,3.411-10.049,6.887-14.421,6.887A4.735,4.735,0,0,1,276.024,224.19Zm-91.656-1c-.528-.218,1.194-1.094,4.2-2.148a35.372,35.372,0,0,1,6.91-1.834c.89-.068.641.208.521.344-1.743,1.422-9.277,3.686-11.263,3.686A1.092,1.092,0,0,1,184.368,223.188Zm-17.594-2.012c.247-.082,5.994-1.993,6.655-2a.4.4,0,0,1-.127.109,79.482,79.482,0,0,1-10.451,3.329C162.876,222.564,162.954,222.439,166.774,221.176Zm78.7.222c-1.3-.586.851-2.4,4.988-4.2,4.587-1.99,10.808-3.425,9.963-1.3-1.832,2.829-10.412,5.67-13.858,5.67A2.8,2.8,0,0,1,245.472,221.4Zm-30.562-.32c-.691-.412,1.314-1.689,4.76-3.033a43.875,43.875,0,0,1,4.67-1.53c1.124-.292,4.733-1.156,4,.093-1.781,2.017-9.82,4.613-12.624,4.613A1.687,1.687,0,0,1,214.91,221.078ZM341,219.012c-4.037-.89-2.089-5.353,4.106-9.362,5.577-3.621,13.693-5.8,13.236-.849-1.4,5.584-10.718,10.349-15.948,10.349A6.468,6.468,0,0,1,341,219.012Zm-164.9-1.639c2.323-.811,4.57-1.814,6.947-2.437l-.066.024c-2.821,1.1-10.12,3.6-10.961,3.829C173.383,218.308,174.754,217.849,176.106,217.373Zm16.527-1.334c.282-.457,2.943-1.5,4.51-2.086.074-.017,7.261-2.674,7.934-2.193a.532.532,0,0,1-.136.172c-1.816,1.337-10.142,4.173-11.984,4.173A.55.55,0,0,1,192.632,216.039Zm-.292-4.266a.476.476,0,0,0,.109-.029c-.445.379-5.257,2.254-7.094,2.94-.354.131-3.392,1.258-4.2,1.413C181.681,215.612,192.249,211.795,192.34,211.773Zm210.509,3.409c-5.7-.472-4.861-7,1.63-12.715,5.861-5.15,13.073-6.413,13.262-.256-.677,7.368-9.04,12.993-14.335,12.993Q403.122,215.2,402.849,215.182Zm-219.757-.256-.039.01Zm6.9-.426c.711-.723,9.9-4.5,11.532-4.854.024,0,.076,0,.113-.011h0q1.126-.55,3.878-1.63c.763-.313,7.47-2.945,8.059-2.707a.769.769,0,0,1-.142.15c-1.932,1.272-10.8,4.579-12.365,4.657a63.337,63.337,0,0,1-6.683,3.027,26.337,26.337,0,0,1-4.33,1.428A.451.451,0,0,0,190,214.5Zm121.459-1.2c-2.988-.735-.858-4.083,4.649-7.3,5.989-3.5,12.744-4.9,12.162-1.387-1.5,4.307-10.516,8.835-15.441,8.835A5.783,5.783,0,0,1,311.454,213.3Zm-89.067-1.462c-.682-.316,1.321-1.57,4.879-3.059a45.4,45.4,0,0,1,7.092-2.37c2.448-.526,2.041.115,1.91.323-1.926,2.058-10.767,5.19-13.339,5.19A1.342,1.342,0,0,1,222.387,211.838Zm59.347-1.473c-2.093-.6.089-3.083,5-5.657,4.969-2.614,11.994-4.645,11.231-1.761-1.786,3.723-11.119,7.54-15.177,7.539A3.942,3.942,0,0,1,281.735,210.365Zm-29.657-.462c-1.316-.44.861-2.265,5.063-4.233.434-.2,1.034-.472,1.486-.658,3.972-1.7,9.468-3.268,8.647-1.3-1.814,2.737-10.861,6.3-14.336,6.3A2.775,2.775,0,0,1,252.078,209.9Zm121.313-2.72c-5.211-.586-3.752-6.231,3-11.62,5.761-4.588,14.071-7.343,14-1.215-.986,6.535-10.1,12.882-16.133,12.881A7.8,7.8,0,0,1,373.391,207.184Zm-164.452-1.947c.232-.134.581-.334,4.727-2.088,7.236-3.057,7.894-3.231,8.245-3.32Q215.537,202.6,209,205.267A.187.187,0,0,1,208.938,205.236Zm12.973-5.408a.14.14,0,0,0,.048.041c-.029.026-.091.052-.11.079A107.057,107.057,0,0,1,209,205.267Q215.546,202.606,221.911,199.828Zm7.676,3.87c-.712-.2,1.266-1.407,5.03-3.088a47.567,47.567,0,0,1,8.475-3.071c1.117-.189.858.176.727.363-2.208,2.219-11.983,5.821-14,5.821A.878.878,0,0,1,229.586,203.7Zm-12.023-2.541,11.595-5.293c.287-.134.561-.282.844-.4-.029.012-.057.026-.086.041-1.264.621-2.636,1.269-4.089,1.938q-2.124,1-4.269,1.978c-2.84,1.287-4.438,1.961-4.876,2.137A6.754,6.754,0,0,1,217.563,201.158Zm127.089.06c-4.041-.567-2.229-4.908,3.888-9.293,5.446-3.916,13.461-6.664,13.129-1.9-1.23,5.368-10.713,11.248-16.133,11.247A6.38,6.38,0,0,1,344.652,201.218Zm-86.4-1.861c-.876-.446,1.256-2.11,5.271-4.146,1.713-.858,3.249-1.514,3.833-1.746,3.34-1.385,7.018-2.452,6.37-.938-1.892,2.781-11.73,6.948-14.8,6.947A1.543,1.543,0,0,1,258.251,199.358Zm-20.621-7.186a.655.655,0,0,1,.11-.038c-.232.38-5.044,2.98-8.463,4.655a45.365,45.365,0,0,1-4.91,2.136C224.65,198.347,237.509,192.222,237.63,192.172Zm78.32,5.877c-3.027-.486-.986-3.767,4.548-7.321,5.326-3.423,12.729-6.018,12.181-2.318-1.477,4.436-11.105,9.7-15.911,9.7A5.261,5.261,0,0,1,315.95,198.049Zm-29.045-.619c-1.538-.605.666-2.923,5.231-5.544,5.053-2.883,11.947-5.317,11.224-2.567-1.851,3.907-11.814,8.245-15.541,8.245A2.585,2.585,0,0,1,286.905,197.429Zm-50.349-.945c.17-.4,1.91-1.4,5.176-2.973.873-.42,8.532-4.083,9.388-3.621a.852.852,0,0,1-.122.225c-2.05,1.909-12.127,6.419-14.166,6.419A.592.592,0,0,1,236.556,196.484Zm-6.525-1.026-.029.011Zm175.352-15.232c5.1-5.088,12.745-8.188,13.13-1.477C418.059,185.96,409.879,193,404.1,193,398.509,192.994,399.167,186.426,405.384,180.227Zm-162,10.208c.194-.18.644-.579,5.168-2.938,2.5-1.3,8.391-4.315,9.32-4.346a.668.668,0,0,0,.019.113c-.034.026-.075.074-.113.108-2.27,1.968-12.87,7.089-14.38,7.161A.519.519,0,0,0,243.387,190.436Zm20.879-.464c-.857-.294,1.228-1.935,5.3-4.179a61.994,61.994,0,0,1,6.756-3.224c1.872-.73,3.993-1.371,3.515-.271-2.114,3.031-12.768,7.718-15.24,7.718A1.029,1.029,0,0,1,264.266,189.972Zm111.4-2.321c-5.089-.141-3.78-5.764,2.678-11.56,5.535-4.966,13.645-8.391,13.729-2.437-.866,7.215-10.79,14-16.222,14Zm-83.743-1.985c-1.562-.4.573-2.7,5.195-5.6.242-.139.558-.333.8-.476,4.78-2.865,11.078-5.5,10.446-2.995-1.837,3.933-12.482,9.127-15.9,9.127A2.146,2.146,0,0,1,291.92,185.666Zm-42.034-.1c.407-.292.954-.6,5.187-3,8.418-4.746,9.094-5.136,9.412-5.088-.031.029-.07.06-.108.094-2.51,1.966-13.644,7.995-14.481,7.994Zm97.348-1.242c-3.3-.6-1.4-4.757,4.244-9.277,5.436-4.356,13.213-7.688,13-3-1.227,6.019-11.528,12.341-16.441,12.341A4.547,4.547,0,0,1,347.234,184.326Zm-27.666-.591c-2.4-.5-.307-3.633,4.869-7.3,5.254-3.712,12.59-6.853,12.128-3.315-1.553,4.968-11.955,10.68-16.272,10.679A3.6,3.6,0,0,1,319.568,183.735Zm-61.4-3.188,10.485-6.492c.632-.406,1.237-.859,1.895-1.225a.3.3,0,0,1-.093.071c-.7.485-2.26,1.537-5.108,3.309-1.422.914-2.707,1.721-4.049,2.545-2.792,1.708-4.639,2.76-5.158,3.026A19,19,0,0,1,258.169,180.548Zm11.909,1.038c-.838-.135,1.163-1.739,5.209-4.157a60.754,60.754,0,0,1,8.831-4.526c1.716-.591,1.462-.057,1.34.208-2.137,2.974-13.077,8.486-15.232,8.486A.9.9,0,0,1,270.078,181.586Zm26.525-6.691c-1.546-.21.507-2.463,5.115-5.626.783-.547,1.6-1.067,2.409-1.574,4.589-2.853,9.319-4.992,8.827-2.915-1.85,4.012-12.879,10.131-16.089,10.131A1.983,1.983,0,0,1,296.6,174.895Zm-21.386-.651c.034-.182.12-.664,5.415-4.123.969-.638,9.535-6.21,10.26-5.585a.951.951,0,0,1-.071.281c-1.872,2.527-13.248,9.451-15.415,9.451A.631.631,0,0,1,275.217,174.244Zm130.472-15.459c4.821-5.513,12.188-9.326,12.767-2.772-.208,7.2-8.008,14.971-13.684,15.511q-.321.031-.615.031C399.288,171.555,399.933,165.361,405.689,158.785Zm-82.363,11.594c-2.7-.261.3-3.856,4.644-7.261,5.216-4.093,12.279-7.748,11.935-4.4-1.465,5.01-12.267,11.674-16.265,11.673A3.076,3.076,0,0,1,323.327,170.379Zm53.313-1.342c-4.314-.227-2.939-5.509,3-11.544,5.456-5.532,13.236-9.67,13.512-3.817-.67,7.47-10.914,15.369-16.236,15.368C376.824,169.045,376.731,169.042,376.64,169.037Zm-26.681-.653c-3.3-.251-1.562-4.314,3.953-9.239,5.364-4.806,12.8-8.728,12.741-4.2-1.064,6.105-11.747,13.454-16.385,13.454Q350.109,168.4,349.959,168.384ZM280.3,168c.21-.273.5-.662,5.3-4.107,9.166-6.58,9.808-6.573,10.152-6.571a.612.612,0,0,1-.074.237,10.878,10.878,0,0,1-1.39,1.392q-4.846,3.6-9.913,7.054a22.32,22.32,0,0,1-4.031,2.091A.5.5,0,0,1,280.3,168Zm13.992-9.048A77.278,77.278,0,0,1,284.381,166Q289.442,162.551,294.294,158.948Zm6.412,6.142c-1.029-.246.97-2.389,5.218-5.595,2.015-1.53,3.733-2.683,4.821-3.377,1.555-1.015,6.626-4.134,6.171-2.133-1.791,4.022-13.3,11.128-15.98,11.127A1.062,1.062,0,0,1,300.706,165.09Zm-10.484-6.331c9.219-7.3,9.219-7.3,9.829-7.575a.422.422,0,0,0,.083.048,1.452,1.452,0,0,1-.079.129c-2.045,2.547-13.65,11.292-14.99,11.555C285.34,162.615,285.34,162.615,290.222,158.759Zm35.938-.693c-1.775-.292.158-3.225,4.827-7.294,5.086-4.444,11.985-8.854,11.755-5.6-1.357,5.181-12.62,12.916-16.258,12.916A2.047,2.047,0,0,1,326.159,158.066Zm-21.438-1.756c-1.007-.038.812-2.073,4.986-5.568a88.147,88.147,0,0,1,7.472-5.685c2.355-1.538,3.453-1.849,3.278-.945-1.734,4.014-13.39,12.2-15.7,12.2Zm51.067-12.179c5.045-5.083,12.393-9.974,12.478-5.518-.891,6.328-11.583,14.676-16.141,14.806l-.113,0C348.9,153.42,350.5,149.461,355.788,144.13Zm24.6-4.4c5.2-6,12.731-10.916,13.2-5.271-.407,7.587-10.628,16.609-15.825,16.863-.081,0-.159.006-.236.006C373.626,151.331,374.882,146.1,380.392,139.734Zm24.9-1.595c4.568-6.028,11.693-10.673,12.48-4.258.057,8.063-8.595,16.659-13.641,17.081q-.22.018-.425.018C399.4,150.98,400.081,145.022,405.292,138.139Zm-97.36,10.491c-.015-.139-.034-.3.534-1q6.389-5.483,12.284-11.306c2.256-1.751,2.637-1.545,2.756-1.476a.907.907,0,0,1,.015.342c-1.58,3.839-13.328,13.475-15.4,13.474A.4.4,0,0,1,307.932,148.63Zm5.085-5.571c2.117-1.978,5.175-4.748,7.733-6.731q-5.89,5.826-12.284,11.306A51.943,51.943,0,0,1,313.017,143.059Zm16,3.636c-1.73-.038.043-2.892,4.51-7.269.457-.45,1.077-1.031,1.539-1.459,4.845-4.458,10.006-8.048,9.894-5.379-1.188,5.121-12.63,14.108-15.907,14.108ZM311.1,141.97c.17-.428.632-1.14,4.826-5.525,9.094-9.541,9.75-9.434,10.066-9.379a.949.949,0,0,1,.024.28c-1.417,3.66-12.392,13.907-14.79,14.713C311.191,142.033,311.144,142,311.1,141.97Zm46.033-11.89c4.9-5.6,11.834-11.12,12.066-6.922-.646,6.432-11.719,16.188-15.834,16.188C350.811,139.346,352.352,135.541,357.138,130.08Zm-21.563-1c.348-.378,1.592-1.737,3.024-3.186,1.893-1.89,8.056-7.843,8.061-5.016-.971,5.056-11.988,15.033-15.3,15.495a1.385,1.385,0,0,1-.192.015C329.783,136.39,331.407,133.693,335.574,129.083Zm44.97-6.193c.221-.3.522-.686.752-.978,5.271-6.616,11.325-10.725,11.925-5.818-.1,7.193-9.207,17.371-14.851,18.318a4.172,4.172,0,0,1-.7.063C374.382,134.474,375.542,129.51,380.545,122.89Zm23.666-4.583c.4-.619.971-1.425,1.4-2.007,4.562-6.121,9.808-9.213,10.678-3.8.354,7.551-7.322,17.578-12.784,18.686a4.623,4.623,0,0,1-.91.1C398.877,131.285,399.488,125.574,404.211,118.307ZM337.1,119.8c1.569-1.966,2.95-3.573,3.648-4.36,2.575-2.938,6.915-7.545,7.052-5.346-.761,5.1-12.169,16.834-14.887,17.085q-.04,0-.076,0C331.5,127.187,334.4,123.193,337.1,119.8Zm20.8-2.82c.433-.565,1.014-1.3,1.468-1.847,4.647-5.635,9.813-10.1,10.179-6.571-.383,6.406-10.827,17.112-15.016,17.705a2.217,2.217,0,0,1-.317.025C352.137,126.3,353.573,122.633,357.9,116.985Zm-23.875,1.971c-.149-.285-.414-.82,4.111-7.348,1.307-1.892,2.833-4,4.078-5.635,3.819-5.028,5.842-6.882,6.025-5.516-.471,4.84-11.685,18.52-14.068,18.519A.488.488,0,0,1,334.024,118.955Zm46.014-12.032c.418-.641,1-1.49,1.445-2.112,4.74-6.631,9.954-10.936,10.731-6.358.234,7.831-9.617,19.365-14.45,20.107a3.062,3.062,0,0,1-.469.039C374.475,118.6,375.549,113.832,380.038,106.924Zm-21.925-2.038c.668-1,1.36-2,2.065-2.966,3.828-5.247,8.489-10.237,9.014-7.027-.069,6.563-10.671,18.934-14.4,19.341a1.472,1.472,0,0,1-.159.009C352.626,114.242,355.081,109.458,358.113,104.886Zm44.37-5.573c.6-1.094,1.457-2.475,1.952-3.229,3.843-5.734,8.468-9.51,9.557-4.233.677,7.673-6.285,18.465-11.7,20.281a3.956,3.956,0,0,1-1.246.231C397.888,112.362,398.377,106.782,402.483,99.313ZM378.91,91.927c.577-1.035,1.4-2.433,2.018-3.42,4.058-6.41,8.585-11,9.51-6.791.608,7.79-8.419,20.31-13.248,21.79a2.737,2.737,0,0,1-.8.136C374.04,103.642,374.987,99.058,378.91,91.927Zm-21.2,1.928c.62-1.091,1.251-2.17,1.9-3.22,3.7-6.018,7.9-11.4,8.583-8.5.287,6.274-9.617,20.016-13.308,21.085a1.257,1.257,0,0,1-.35.057C353.163,103.276,354.28,99.9,357.709,93.855ZM400,81.2a50.163,50.163,0,0,1,2.407-4.672c3.362-5.7,7.295-9.34,8.5-4.6,1.1,8.068-5.893,20.556-11.119,22.3a3.055,3.055,0,0,1-.97.18C396.038,94.4,396.448,88.967,400,81.2Zm-43.269,2.712c1.1-2.324,6.735-13.944,9.185-14.136A200.577,200.577,0,0,1,354.25,93.309c-.036.014-.091.043-.117.055a.78.78,0,0,1-.183.024C352.54,93.388,354.654,88.287,356.731,83.909Zm-2.481,9.4.007,0,0,0Zm11.667-23.537c.322-.021.457.406.553.691.682,6.139-8.6,21.381-12.213,22.843A201.506,201.506,0,0,0,365.917,69.773Zm11.19,8.13c.536-1.165,1.393-2.956,2.472-4.934,3.307-6.03,7.245-11.091,8.352-7.166,1.06,7.92-7.974,22.515-12.446,23.845a1.9,1.9,0,0,1-.531.085C372.938,89.732,373.732,85.242,377.107,77.9ZM396.8,64.018a61.279,61.279,0,0,1,2.73-6.293c.929-1.828,5.659-10.632,7.468-4.847,1.467,7.917-4.747,21.53-9.769,24.106a2.82,2.82,0,0,1-1.253.361C393.573,77.345,393.817,72.082,396.8,64.018Zm-22.175.93c1.172-3.152,2.347-5.728,2.79-6.683,1.685-3.636,5.764-11.627,7.273-7.465,1.541,7.862-6.529,23.7-11.03,25.873a1.735,1.735,0,0,1-.739.2C371.211,76.877,371.817,72.483,374.621,64.948Zm-4.7-5.581q2.832-7.979,5.082-16.406c2.654-6.3,4.536-8.314,5.6-5.987,1.991,7.437-5.048,24.7-9.36,27.749a1.724,1.724,0,0,1-.933.39C368.851,65.113,369.632,60.9,369.917,59.368Zm22.917-11.555a68.1,68.1,0,0,1,3.407-9.345c1.249-2.643,4.3-8.31,6-3.83,2.12,8.718-4.33,24.072-8.808,26.389a2.077,2.077,0,0,1-.943.273C390.375,61.3,390.454,56.088,392.834,47.813Zm-21.336,5.3A100.958,100.958,0,0,1,375,42.962q-2.247,8.439-5.082,16.406C370.164,58.215,370.572,56.29,371.5,53.113Zm16.61-20.434a82.914,82.914,0,0,1,2.826-10.206c1.063-2.959,3.752-9.374,5.685-5.131,2.468,7.974-2.455,25.048-7.159,28.548a2.038,2.038,0,0,1-1.157.485C386.42,46.374,386.3,41.25,388.108,32.679Zm-5.448-14a89.283,89.283,0,0,1,2.528-12.361c1.02-3.433,3.015-8.668,4.944-5.158,3.257,8.494-1.668,27.911-5.745,30.918a1.54,1.54,0,0,1-.882.358C381.792,32.439,381.458,27.413,382.66,18.682Z" transform="translate(1513.02 -23)" fill="#324efd" stroke="rgba(0,0,0,0)" stroke-miterlimit="10" stroke-width="1" opacity="0.1"/>
    </g>
    <path id="Path_400" data-name="Path 400" d="M429.488,312.051a19.17,19.17,0,0,0,27.079,0,15.647,15.647,0,0,1,22.1,0,19.171,19.171,0,0,0,27.081,0l-2.491-2.491a15.644,15.644,0,0,1-22.1,0,19.173,19.173,0,0,0-27.081,0,15.644,15.644,0,0,1-22.1,0,19.172,19.172,0,0,0-27.081,0l2.491,2.491A15.648,15.648,0,0,1,429.488,312.051ZM331.13,333.979a19.17,19.17,0,0,0,27.079,0,15.646,15.646,0,0,1,22.1,0,19.172,19.172,0,0,0,27.079,0,15.646,15.646,0,0,1,22.1,0,19.172,19.172,0,0,0,27.079,0,15.644,15.644,0,0,1,22.1,0,19.173,19.173,0,0,0,27.081,0l-2.491-2.491a15.647,15.647,0,0,1-22.1,0,19.171,19.171,0,0,0-27.081,0,15.647,15.647,0,0,1-22.1,0,19.17,19.17,0,0,0-27.081,0,15.647,15.647,0,0,1-22.1,0,19.171,19.171,0,0,0-27.081,0,15.647,15.647,0,0,1-22.1,0,19.17,19.17,0,0,0-27.081,0l2.492,2.491A15.644,15.644,0,0,1,331.13,333.979Zm0,21.927a19.17,19.17,0,0,0,27.079,0,15.646,15.646,0,0,1,22.1,0,19.172,19.172,0,0,0,27.079,0,15.646,15.646,0,0,1,22.1,0,19.172,19.172,0,0,0,27.079,0l-2.491-2.491a15.647,15.647,0,0,1-22.1,0,19.17,19.17,0,0,0-27.081,0,15.647,15.647,0,0,1-22.1,0,19.169,19.169,0,0,0-27.081,0,15.647,15.647,0,0,1-22.1,0,19.17,19.17,0,0,0-27.081,0l2.492,2.491A15.644,15.644,0,0,1,331.13,355.906Zm0,21.928a19.17,19.17,0,0,0,27.079,0,15.646,15.646,0,0,1,22.1,0,19.172,19.172,0,0,0,27.079,0l-2.491-2.491a15.647,15.647,0,0,1-22.1,0,19.169,19.169,0,0,0-27.081,0,15.647,15.647,0,0,1-22.1,0,19.17,19.17,0,0,0-27.081,0l2.492,2.491A15.644,15.644,0,0,1,331.13,377.834Zm2.491,19.435a19.172,19.172,0,0,0-27.081,0l2.492,2.492a15.644,15.644,0,0,1,22.1,0,19.17,19.17,0,0,0,27.079,0l-2.491-2.492A15.645,15.645,0,0,1,333.621,397.269Z" transform="translate(-306.54 236.038)" fill="#324efd" opacity="0.1"/>
  </g>
</svg>
