<svg xmlns="http://www.w3.org/2000/svg" width="170" height="58.967" viewBox="0 0 170 58.967">
  <g id="Group_9622" data-name="Group 9622" transform="translate(-50 -49.598)">
    <path id="Path_86" data-name="Path 86" d="M80.646,103.329a5.545,5.545,0,0,1,3.5,1.433,17.729,17.729,0,0,1,3.57,3.8,2.09,2.09,0,0,0-.434-1.628,16.154,16.154,0,0,0-3.185-3.51,7.339,7.339,0,0,0-2.246-1.234,10.2,10.2,0,0,0-5.908-.078c-1.5.371-2.975.878-4.483,1.226-1.491.344-2.044-.23-1.823-1.742,0-.033.015-.065.019-.1a17.079,17.079,0,0,0,.13-3.707,2.716,2.716,0,0,0-1.577-2.6c-.322-.132-.361-.377-.222-.693a8.516,8.516,0,0,0,.359-1.026,1.384,1.384,0,0,0-.523-1.623c-.289-.219-.554-.47-.836-.7-.159-.129-.162-.248-.051-.42a9.462,9.462,0,0,0,.571-.984c.688-1.413.4-2.136-1.088-2.665-.745-.265-1.508-.483-2.261-.726-.164-.053-.331-.063-.226-.352A43.243,43.243,0,0,1,66.117,80.6a12.183,12.183,0,0,0,1.321-8.051,6.749,6.749,0,0,1,.948-5.172A26.241,26.241,0,0,1,70.836,64.4a1.46,1.46,0,0,1,1.433-.493,73.466,73.466,0,0,0,10.183.545c.606-.007,1.212,0,1.832,0l-.5.144a16.3,16.3,0,0,0-11.37,10.43,24.05,24.05,0,0,0-.131,16.552,14.884,14.884,0,0,0,9.385,9.551,21.4,21.4,0,0,0,9.04.979A19.643,19.643,0,0,0,96.168,101a.492.492,0,0,0,.381-.652q-.457-2.457-.875-4.921c-.053-.312-.142-.368-.446-.263a16.532,16.532,0,0,1-6.924.865c-4.165-.366-7.182-2.419-8.678-6.343a18.057,18.057,0,0,1,.035-13.218,9.627,9.627,0,0,1,7.634-6.348,13.9,13.9,0,0,1,7.776.808c.4.158.517.088.611-.327.364-1.608.749-3.212,1.169-4.807.116-.441-.016-.6-.4-.754a14.632,14.632,0,0,0-3.2-.848c-.777-.115-1.558-.2-2.337-.3a1.891,1.891,0,0,1,.564-.132,84.571,84.571,0,0,0,13.926-3.175.492.492,0,0,0,.416-.576c-.016-2.165,0-4.329-.017-6.494,0-.337.105-.462.426-.5,2.686-.335,5.37-.68,8.055-1.021q1.688-.214,3.376-.421c-2.2-.192-4.389-.323-6.581-.46-3.313-.207-6.627-.408-9.938-.629-4.663-.312-9.321-.71-13.992-.882H83.568c-2.742.1-5.461.43-8.177.795q-6.108.819-12.216,1.628c-4.074.532-8.15,1.043-12.224,1.573a2.022,2.022,0,0,0-.95.218c.939.09,1.874.134,2.809.192q5.315.33,10.629.669,3.855.25,7.709.524c3.08.225,6.159.443,9.246.551a74.465,74.465,0,0,0,12.48-.929c2.387-.32,7.942-1.133,8.347-1.106-.391.112-7.76,1.7-11.055,2.382a33.314,33.314,0,0,1-9.134.941c-1.844-.132-3.685-.316-5.526-.481-2.749-.245-5.506-.322-8.26-.469-.4-.021-.463.116-.459.468.016,1.652.006,3.3.008,4.957a10.585,10.585,0,0,1,.06,1.817c-.111.574-.715,1.042-1.066,1.581a10.533,10.533,0,0,0-1.429,9.53,4.215,4.215,0,0,1-.13,3.074c-.483,1.2-1.113,2.32-1.707,3.461a16.383,16.383,0,0,0-1.7,4.1,2.966,2.966,0,0,0,1.923,3.705,6.246,6.246,0,0,0,1.513.45c.41.063.375.189.214.494-.759,1.444-.563,2.293.73,3.308a1.628,1.628,0,0,0,.239.176.4.4,0,0,1,.213.56A5.725,5.725,0,0,0,65.4,95.03a1.116,1.116,0,0,0,.733,1.3,1.98,1.98,0,0,1,1.192,1.481,10.607,10.607,0,0,1,.137,3.351,8.268,8.268,0,0,0,.053,2.123,2.16,2.16,0,0,0,2.057,1.939,5.933,5.933,0,0,0,1.334-.043,36.438,36.438,0,0,0,4.133-1A17.744,17.744,0,0,1,80.646,103.329Zm21.619-38.566a3.327,3.327,0,1,0,3.33,3.324A3.312,3.312,0,0,0,102.265,64.763Zm1.833,5.205a7.156,7.156,0,0,0-1.133-1.473c.714-.261.991-.625.892-1.142-.106-.554-.443-.783-1.182-.793-.444-.006-.89.008-1.334-.006-.23-.007-.319.066-.316.307.01.988.006,1.977,0,2.965,0,.168.025.287.236.288s.256-.093.253-.273c-.006-.329,0-.659,0-.988,0-.142-.034-.3.2-.316.441-.023.858-.013,1.12.437.165.284.378.541.536.829a.548.548,0,0,0,.551.327,2.6,2.6,0,0,1-3.667-.323,2.657,2.657,0,0,1,3.979-3.519A2.6,2.6,0,0,1,104.1,69.969Zm-2.584-2.228c-.023-.786-.023-.786.768-.77a4.568,4.568,0,0,1,.591,0,.522.522,0,0,1,.5.52.532.532,0,0,1-.446.569,5.407,5.407,0,0,1-1.18.062c-.168,0-.239-.076-.233-.238C101.516,67.839,101.515,67.79,101.513,67.74Z" fill="#fff"/>
    <g id="Group_26" data-name="Group 26" transform="translate(97.489 64.162)">
      <path id="Path_87" data-name="Path 87" d="M665.671,110.638c-1.858-.006-3.718.027-5.575-.036-.745-.025-.852.257-.849.908.03,8.455-.095,16.913.549,25.354.011.148.117.357-.145.452a1.612,1.612,0,0,1-.146-.233c-3.585-8.955-8.48-17.261-12.782-25.861a.894.894,0,0,0-.906-.614c-2.168.03-4.337.025-6.505,0-.482,0-.692.149-.635.635a3.169,3.169,0,0,1,0,.372q0,17.611-.02,35.222c0,.835.219,1.051,1.031,1.016,1.546-.067,3.1-.048,4.646-.006.641.017.858-.164.842-.825-.042-1.8-.012-3.593-.015-5.39-.009-6.412-.017-12.824-.306-19.231-.035-.771-.085-1.541-.139-2.5a2.462,2.462,0,0,1,.308.373c3.665,9.36,8.772,18.012,13.254,26.97.175.35.348.6.819.6,2.2-.036,4.4-.034,6.6-.046q0-15.377,0-30.753C665.7,114.911,665.681,112.775,665.671,110.638Z" transform="translate(-543.188 -110.35)" fill="#fff"/>
      <path id="Path_88" data-name="Path 88" d="M376.815,118.359c-.875-4.81-4.547-7.9-9.858-8.522a50.775,50.775,0,0,0-12.591.291c-.932.122-1.129.439-1.122,1.321.041,5.729.021,11.459.021,17.189,0,5.854.013,11.707-.016,17.561,0,.7.184.89.877.87,1.764-.05,3.532-.06,5.3,0,.8.029.964-.23.957-.985-.037-4.026,0-8.053-.032-12.079,0-.66.172-.827.835-.775a20.868,20.868,0,0,0,6-.343C375.678,131.076,377.935,124.517,376.815,118.359Zm-6.872,3.526c-.468,3.888-2.931,5.834-7.352,5.809-2.232-.013-2.232-.013-2.232-2.228,0-3.1.009-6.2-.009-9.293,0-.5.061-.823.645-.885a13.487,13.487,0,0,1,4.436.033A5.622,5.622,0,0,1,369.943,121.885Z" transform="translate(-327.088 -109.566)" fill="#fff"/>
      <path id="Path_89" data-name="Path 89" d="M547.148,162.571c-.553-6.281-4.3-11.307-10.851-11.942-5.093-.493-10.44,1.648-12.809,7.221a17.769,17.769,0,0,0-.829,11.206c1.142,4.907,4.086,8.274,9.15,9.277,4.983.986,9.378-.235,12.621-4.371a14.3,14.3,0,0,0,2.726-9.44C547.155,163.871,547.2,163.217,547.148,162.571Zm-7.975,6.978a7.764,7.764,0,0,1-.921,1.812,4.119,4.119,0,0,1-7.063.043,11.43,11.43,0,0,1-1.742-6.8,12.575,12.575,0,0,1,1.331-6.187,4.4,4.4,0,0,1,3.262-2.493,4.124,4.124,0,0,1,4.387,2.113,9.932,9.932,0,0,1,1.379,4.192A15.758,15.758,0,0,1,539.173,169.55Z" transform="translate(-454.955 -140.605)" fill="#fff"/>
      <path id="Path_90" data-name="Path 90" d="M267.408,156.638a9.339,9.339,0,0,0-6.673-5.8,11.642,11.642,0,0,0-13.7,6.9,17.9,17.9,0,0,0-.887,11.816,10.913,10.913,0,0,0,7.992,8.371,21.577,21.577,0,0,0,12.608-.673c.574-.185.58-.531.479-1-.247-1.149-.513-2.295-.709-3.453-.1-.608-.3-.745-.905-.542a17.956,17.956,0,0,1-6.4.893c-3.828-.143-6.173-2.141-6.746-5.634-.12-.735.131-.826.754-.82,2.416.025,4.833.01,7.25.01,2.447,0,4.9-.013,7.342.01.53.005.756-.117.809-.7A19.174,19.174,0,0,0,267.408,156.638Zm-6.011,5.135c-1.389-.028-2.78-.01-4.17-.01s-2.78-.018-4.17.009c-.551.011-.692-.162-.592-.705a8.678,8.678,0,0,1,1.482-3.751,4.276,4.276,0,0,1,7.469.809,8.072,8.072,0,0,1,.662,2.963C262.1,161.625,261.919,161.784,261.4,161.773Z" transform="translate(-245.544 -140.551)" fill="#fff"/>
      <path id="Path_91" data-name="Path 91" d="M474.581,150.532a6.937,6.937,0,0,0-5.6,2.431,27.724,27.724,0,0,0-1.865,2.684c-.08-1.278-.172-2.556-.233-3.835-.025-.539-.223-.741-.8-.726-1.548.041-3.1.039-4.648,0-.6-.014-.82.144-.774.779.092,1.266.144,2.537.147,3.807q.033,10.738.018,21.476c0,.725.178.958.922.934,1.734-.055,3.473-.073,5.2,0,.913.041,1.121-.236,1.113-1.126-.042-4.555-.058-9.112.016-13.666.05-3.132,1.777-5.28,4.476-5.827a7.921,7.921,0,0,1,2.316-.049c.541.051.7-.119.693-.649-.025-1.735-.055-3.473.012-5.206C475.619,150.759,475.278,150.561,474.581,150.532Z" transform="translate(-408.421 -140.578)" fill="#fff"/>
    </g>
  </g>
</svg>
