<svg id="Layer_1" data-name="Layer 1" xmlns="http://www.w3.org/2000/svg" viewBox="0 0 400 400"><defs><style>.cls-1{fill:#127f9e;}</style></defs><title>Cepron_Logo</title><path class="cls-1" d="M188,265.38a25.83,25.83,0,0,1,16.29,6.67c5.92,5.32,12.1,10.38,16.61,17.7.56-3.27-.62-5.51-2-7.58a75,75,0,0,0-14.82-16.34,34.35,34.35,0,0,0-10.46-5.74c-9.12-3.17-18.34-2.62-27.5-.36-7,1.72-13.84,4.08-20.86,5.7s-9.52-1.07-8.49-8.1c0-.15.07-.3.09-.45a79.15,79.15,0,0,0,.6-17.26c-.48-5.16-1.89-9.86-7.34-12.09-1.5-.61-1.68-1.75-1-3.22a40.37,40.37,0,0,0,1.67-4.78,6.44,6.44,0,0,0-2.43-7.55c-1.35-1-2.58-2.19-3.89-3.26-.74-.6-.76-1.15-.24-1.95a43.63,43.63,0,0,0,2.66-4.58c3.2-6.58,1.84-9.94-5.07-12.41-3.47-1.23-7-2.24-10.52-3.37-.77-.25-1.54-.3-1.06-1.64,3.08-8.52,6-17.1,10.18-25.17,6.15-11.79,8.61-24.22,6.15-37.48-1.58-8.54-.53-16.64,4.41-24.07a121.45,121.45,0,0,1,11.41-13.88c1.92-2.13,3.9-2.65,6.67-2.29a342.77,342.77,0,0,0,47.4,2.54c2.82,0,5.64,0,8.52,0l-2.34.67c-25.65,7.45-43.71,23.5-52.92,48.55-9.36,25.45-9.48,51.4-.61,77,7.46,21.56,22,36.63,43.69,44.46,13.63,4.92,27.77,5.65,42.07,4.55a91.15,91.15,0,0,0,25.43-5.16c1.61-.61,2.08-1.38,1.77-3q-2.13-11.43-4.07-22.9c-.25-1.46-.66-1.72-2.08-1.23a77.06,77.06,0,0,1-32.23,4c-19.38-1.71-33.43-11.26-40.39-29.53-7.77-20.36-7.62-41.19.16-61.52,6.22-16.22,18.24-26.37,35.54-29.55a64.68,64.68,0,0,1,36.19,3.76c1.85.74,2.41.41,2.84-1.52,1.7-7.48,3.49-15,5.44-22.37.54-2.05-.07-2.81-1.86-3.51a68,68,0,0,0-14.89-4c-3.61-.53-7.25-.93-10.87-1.38a8.73,8.73,0,0,1,2.62-.61,394.66,394.66,0,0,0,64.83-14.78,2.3,2.3,0,0,0,1.93-2.69c-.07-10.07,0-20.15-.08-30.22,0-1.57.49-2.15,2-2.34,12.5-1.56,25-3.17,37.49-4.75l15.72-2c-10.23-.9-20.43-1.51-30.63-2.15-15.42-1-30.85-1.89-46.26-2.92-21.71-1.46-43.39-3.31-65.13-4.11H201.61c-12.76.46-25.42,2-38.06,3.7q-28.43,3.81-56.87,7.58c-19,2.48-37.93,4.85-56.89,7.32-1.48.19-3.07.09-4.43,1,4.37.42,8.73.63,13.08.9q24.74,1.53,49.47,3.11c12,.78,23.93,1.57,35.88,2.44,14.34,1,28.67,2.06,43,2.56,19.51.68,38.81-1.74,58.09-4.32,11.11-1.49,37-5.27,38.85-5.15-1.83.52-36.12,7.93-51.46,11.09-14,2.89-28.1,5.42-42.52,4.38-8.58-.62-17.15-1.47-25.72-2.24-12.79-1.14-25.63-1.5-38.45-2.18-1.87-.1-2.15.54-2.14,2.18.08,7.69,0,15.38,0,23.07,0,2.85.77,5.91.28,8.46s-3.33,4.85-5,7.36c-9,13.76-12,28.53-6.65,44.36a19.66,19.66,0,0,1-.6,14.31c-2.25,5.56-5.19,10.79-8,16.11-3.19,6.13-6.44,12.24-7.9,19.09-1.75,8.21,1.23,13.93,9,17.25a29.42,29.42,0,0,0,7,2.09c1.91.3,1.74.88,1,2.3-3.54,6.73-2.63,10.67,3.4,15.4a7.22,7.22,0,0,0,1.11.82,1.84,1.84,0,0,1,1,2.61,26.7,26.7,0,0,0-1.17,5.86c-.27,2.86.58,4.92,3.41,6.05,3.1,1.23,4.76,3.71,5.55,6.89,1.28,5.16,1,10.38.64,15.6a38.36,38.36,0,0,0,.25,9.87c1,5.42,4.32,8.6,9.57,9a27.48,27.48,0,0,0,6.21-.2c6.56-.94,12.86-2.95,19.24-4.64C170.48,267.09,179,264.85,188,265.38Zm196.77,25.54c-4.61,0-9.23.07-13.83-.09-1.85-.06-2.12.64-2.11,2.25.07,21-.24,42,1.36,62.92,0,.37.29.89-.36,1.13a5.81,5.81,0,0,1-.36-.58c-8.89-22.23-21-42.84-31.72-64.18a2.21,2.21,0,0,0-2.25-1.52c-5.38.07-10.76.06-16.14,0-1.2,0-1.72.37-1.58,1.57a7.06,7.06,0,0,1,0,.92q0,43.71-.05,87.41c0,2.07.54,2.61,2.56,2.52,3.83-.17,7.68-.12,11.53,0,1.59,0,2.12-.41,2.09-2-.11-4.46,0-8.92,0-13.38,0-15.91,0-31.82-.76-47.72-.09-1.91-.21-3.82-.35-6.19a6.4,6.4,0,0,1,.77.92c9.09,23.23,21.77,44.7,32.89,66.93.43.87.86,1.5,2,1.48,5.46-.09,10.91-.09,16.37-.12q0-38.16,0-76.31C384.85,301.52,384.8,296.22,384.78,290.92Zm-205,0c-10.45-1.24-20.85-.64-31.25.72-2.31.3-2.8,1.09-2.78,3.28.1,14.21,0,28.43,0,42.65,0,14.53,0,29.06,0,43.58,0,1.74.45,2.21,2.17,2.16,4.38-.12,8.77-.15,13.14,0,2,.07,2.4-.57,2.38-2.44-.09-10,0-20-.08-30,0-1.64.43-2.05,2.07-1.92a52.13,52.13,0,0,0,14.9-.85c21.08-4.51,26.68-20.79,23.9-36.07C202.06,300.09,192.94,292.43,179.77,290.88Zm7.4,29.89c-1.16,9.65-7.27,14.48-18.24,14.42-5.54,0-5.54,0-5.54-5.53,0-7.69,0-15.37,0-23.06,0-1.23.15-2,1.6-2.2,3.68-.39,7.36-.74,11,.08C183.85,306.25,188.16,312.57,187.17,320.77ZM76.61,291.88a54.17,54.17,0,0,0-21.88-2c-17,2-29.42,10.34-35.86,26.41C13.37,330,13.38,344.1,18.1,358a36.68,36.68,0,0,0,20.82,22.8c7.79,3.37,16,4.13,24.39,3.47a51.18,51.18,0,0,0,13.53-2.64c.85-.31,1.7-.51,1.42-1.88q-1.19-5.75-2.08-11.56c-.22-1.41-.78-1.31-1.86-1a41.14,41.14,0,0,1-15.45,2c-10.61-.67-18.32-5.62-22.49-15.61a41.32,41.32,0,0,1-2.82-16.74,41.88,41.88,0,0,1,1.06-10.48c2.47-10.48,8.12-18.21,19-21a32.94,32.94,0,0,1,19.94,1.25c2,.73,2.48.25,2.84-1.59a88.76,88.76,0,0,1,2.28-9.4C79.37,293.46,78.7,292.51,76.61,291.88Zm233,52.84c-1.37-15.59-10.66-28.06-26.93-29.64-12.64-1.22-25.9,4.09-31.78,17.92a44,44,0,0,0-2.06,27.81c2.83,12.17,10.14,20.53,22.71,23,12.36,2.45,23.27-.58,31.32-10.85,5.35-6.82,6.92-14.93,6.76-23.42C309.63,347.94,309.75,346.32,309.61,344.72ZM289.82,362a19.24,19.24,0,0,1-2.28,4.5c-4.62,6.62-12.9,6.72-17.53.11-3.54-5.06-4.32-10.89-4.33-16.89,0-5.36.7-10.57,3.31-15.35,1.77-3.25,4.28-5.61,8.09-6.19,4.81-.72,8.36,1.23,10.89,5.25a24.56,24.56,0,0,1,3.42,10.4C292.12,350,292,356.11,289.82,362Zm-171.3-46.29c-14.32-3.43-28,3.43-34,17.12a44.35,44.35,0,0,0-2.2,29.32C85,372.74,91.54,380,102.17,383s21,1.65,31.29-1.67c1.42-.45,1.44-1.31,1.19-2.47-.62-2.85-1.28-5.7-1.76-8.57-.26-1.51-.74-1.85-2.25-1.34a44.39,44.39,0,0,1-15.89,2.21c-9.5-.35-15.32-5.31-16.74-14-.3-1.82.32-2.05,1.87-2,6,.06,12,0,18,0s12.15,0,18.22,0c1.31,0,1.87-.29,2-1.73.74-8,.13-15.84-3-23.29S126.53,317.67,118.52,315.74Zm1.65,27.13c-3.45-.07-6.9,0-10.35,0s-6.9-.05-10.35,0c-1.36,0-1.71-.4-1.47-1.75a21.58,21.58,0,0,1,3.68-9.31,10.62,10.62,0,0,1,18.54,2,20.12,20.12,0,0,1,1.64,7.35C121.92,342.5,121.46,342.9,120.17,342.87Zm124.84-28c-5.62-.24-10.14,2-13.89,6-1.82,2-3,4.37-4.62,6.66-.2-3.17-.43-6.34-.58-9.52-.07-1.34-.56-1.84-2-1.8-3.84.1-7.69.1-11.53,0-1.5,0-2,.36-1.92,1.94.23,3.14.36,6.29.37,9.44q.07,26.65,0,53.3c0,1.8.44,2.38,2.29,2.32,4.3-.14,8.62-.18,12.91,0,2.27.1,2.79-.59,2.77-2.79-.11-11.31-.15-22.62,0-33.92.13-7.77,4.41-13.1,11.11-14.46a19.8,19.8,0,0,1,5.75-.12c1.34.13,1.74-.3,1.72-1.61-.06-4.31-.14-8.62,0-12.92C247.59,315.47,246.74,315,245,314.91Zm43.63-229a15.49,15.49,0,1,0,15.5,15.47A15.41,15.41,0,0,0,288.64,85.87Zm8.53,24.23c-1.8-2.24-2.85-5-5.27-6.86,3.32-1.21,4.61-2.91,4.15-5.31-.5-2.58-2.07-3.65-5.51-3.69-2.07,0-4.14,0-6.21,0-1.07,0-1.48.31-1.47,1.43.05,4.6,0,9.2,0,13.8,0,.78.12,1.34,1.1,1.34s1.19-.43,1.18-1.27c0-1.54,0-3.07,0-4.6,0-.66-.16-1.42.92-1.47,2.06-.11,4-.07,5.21,2,.77,1.32,1.76,2.52,2.5,3.86a2.54,2.54,0,0,0,2.56,1.52,12.1,12.1,0,0,1-17.06-1.5A12.36,12.36,0,0,1,297.8,93,12.12,12.12,0,0,1,297.17,110.1Zm-12-10.37c-.11-3.66-.11-3.66,3.57-3.59a21,21,0,0,1,2.75,0,2.42,2.42,0,0,1,2.33,2.42,2.48,2.48,0,0,1-2.07,2.65,25.26,25.26,0,0,1-5.49.28c-.79,0-1.12-.35-1.09-1.1Q285.15,100.07,285.14,99.73Z"/></svg>