<svg id="Group_9606" data-name="Group 9606" xmlns="http://www.w3.org/2000/svg" width="170" height="51" viewBox="0 0 170 51">
  <rect id="Rectangle_1568" data-name="Rectangle 1568" width="170" height="51" rx="10" fill="#001733"/>
  <g id="Group_9603" data-name="Group 9603" transform="translate(15.261 6.783)">
    <g id="Group_9599" data-name="Group 9599" transform="translate(0 0)">
      <g id="Group_9598" data-name="Group 9598">
        <path id="Path_3255" data-name="Path 3255" d="M34.9,21.823a7.391,7.391,0,0,1,3.52-6.2A7.57,7.57,0,0,0,32.454,12.4c-2.508-.264-4.941,1.5-6.218,1.5-1.3,0-3.27-1.475-5.391-1.432a7.937,7.937,0,0,0-6.681,4.075c-2.889,5-.734,12.352,2.034,16.4,1.385,1.98,3,4.191,5.12,4.113,2.072-.085,2.846-1.321,5.346-1.321,2.477,0,3.2,1.321,5.364,1.271,2.224-.036,3.624-1.989,4.96-3.987a16.361,16.361,0,0,0,2.268-4.619A7.145,7.145,0,0,1,34.9,21.823Z" transform="translate(-12.792 -4.525)" fill="#fff"/>
        <path id="Path_3256" data-name="Path 3256" d="M27.979,11.431a7.275,7.275,0,0,0,1.665-5.214A7.411,7.411,0,0,0,24.853,8.7a6.923,6.923,0,0,0-1.709,5.021A6.121,6.121,0,0,0,27.979,11.431Z" transform="translate(-9.955 -6.217)" fill="#fff"/>
      </g>
    </g>
    <g id="Group_9600" data-name="Group 9600" transform="translate(37.763 15.025)">
      <path id="Path_3257" data-name="Path 3257" d="M56.735,35.164h-2.9L52.253,30.18H46.74l-1.511,4.984H42.41L47.872,18.2h3.374Zm-4.96-7.075-1.434-4.431q-.228-.679-.856-3.2h-.051q-.251,1.082-.806,3.2l-1.409,4.431Z" transform="translate(-42.41 -17.947)" fill="#fff"/>
      <path id="Path_3258" data-name="Path 3258" d="M67.2,27.929a6.953,6.953,0,0,1-1.687,4.933,4.932,4.932,0,0,1-3.751,1.612,3.751,3.751,0,0,1-3.474-1.737H58.24v6.445H55.522V25.99q0-1.962-.1-4.028h2.391l.152,1.939h.051a4.837,4.837,0,0,1,7.741-.479A6.741,6.741,0,0,1,67.2,27.929Zm-2.769.1a5.037,5.037,0,0,0-.806-2.945,2.783,2.783,0,0,0-2.366-1.209,2.827,2.827,0,0,0-1.825.667,3.093,3.093,0,0,0-1.07,1.751,3.559,3.559,0,0,0-.126.829v2.04a3.269,3.269,0,0,0,.819,2.254,2.713,2.713,0,0,0,2.127.919,2.783,2.783,0,0,0,2.391-1.183A5.207,5.207,0,0,0,64.434,28.029Z" transform="translate(-38.832 -16.981)" fill="#fff"/>
      <path id="Path_3259" data-name="Path 3259" d="M78.24,27.929a6.948,6.948,0,0,1-1.688,4.933,4.928,4.928,0,0,1-3.75,1.612,3.747,3.747,0,0,1-3.473-1.737h-.051v6.445H66.56V25.99q0-1.962-.1-4.028H68.85L69,23.9h.051a4.838,4.838,0,0,1,7.742-.479A6.76,6.76,0,0,1,78.24,27.929Zm-2.769.1a5.037,5.037,0,0,0-.807-2.945A2.779,2.779,0,0,0,72.3,23.875a2.83,2.83,0,0,0-1.826.667A3.091,3.091,0,0,0,69.4,26.292a3.628,3.628,0,0,0-.126.829v2.04a3.279,3.279,0,0,0,.816,2.254,2.719,2.719,0,0,0,2.129.919,2.783,2.783,0,0,0,2.391-1.183A5.208,5.208,0,0,0,75.471,28.029Z" transform="translate(-35.796 -16.981)" fill="#fff"/>
      <path id="Path_3260" data-name="Path 3260" d="M90.309,30.459A4.522,4.522,0,0,1,88.8,33.983a6.679,6.679,0,0,1-4.622,1.485,8.09,8.09,0,0,1-4.4-1.057l.63-2.266a7.452,7.452,0,0,0,3.93,1.084,3.715,3.715,0,0,0,2.393-.694,2.265,2.265,0,0,0,.854-1.854,2.363,2.363,0,0,0-.705-1.739,6.554,6.554,0,0,0-2.341-1.312q-4.456-1.662-4.455-4.865a4.305,4.305,0,0,1,1.562-3.428A6.157,6.157,0,0,1,85.8,18a8.235,8.235,0,0,1,3.851.806l-.68,2.216a6.681,6.681,0,0,0-3.247-.78,3.287,3.287,0,0,0-2.239.705,2.015,2.015,0,0,0-.68,1.536,2.074,2.074,0,0,0,.779,1.661,8.8,8.8,0,0,0,2.468,1.309,8.375,8.375,0,0,1,3.222,2.063A4.31,4.31,0,0,1,90.309,30.459Z" transform="translate(-32.132 -18.001)" fill="#fff"/>
      <path id="Path_3261" data-name="Path 3261" d="M96.7,24.606h-3v5.94q0,2.266,1.586,2.266a4.835,4.835,0,0,0,1.207-.126l.075,2.064a6.159,6.159,0,0,1-2.114.3,3.262,3.262,0,0,1-2.518-.982,4.823,4.823,0,0,1-.907-3.3V24.6H89.244v-2.04h1.785v-2.24l2.67-.806v3.046h3v2.043Z" transform="translate(-29.53 -17.584)" fill="#fff"/>
      <path id="Path_3262" data-name="Path 3262" d="M108.276,27.979a6.712,6.712,0,0,1-1.612,4.632,5.754,5.754,0,0,1-4.483,1.863,5.471,5.471,0,0,1-4.29-1.786,6.506,6.506,0,0,1-1.6-4.506,6.646,6.646,0,0,1,1.649-4.656,5.705,5.705,0,0,1,4.442-1.813,5.587,5.587,0,0,1,4.33,1.788A6.432,6.432,0,0,1,108.276,27.979Zm-2.82.088a5.5,5.5,0,0,0-.729-2.9,2.685,2.685,0,0,0-2.44-1.464,2.726,2.726,0,0,0-2.493,1.464,5.609,5.609,0,0,0-.729,2.954,5.5,5.5,0,0,0,.729,2.9,2.778,2.778,0,0,0,4.909-.025A5.523,5.523,0,0,0,105.455,28.067Z" transform="translate(-27.592 -16.98)" fill="#fff"/>
      <path id="Path_3263" data-name="Path 3263" d="M114.033,24.353a4.72,4.72,0,0,0-.857-.075,2.568,2.568,0,0,0-2.216,1.084,4.073,4.073,0,0,0-.68,2.416V34.2h-2.717l.026-8.382q0-2.115-.1-3.852h2.368l.1,2.341h.075a4.184,4.184,0,0,1,1.359-1.938,3.287,3.287,0,0,1,1.965-.655,4.364,4.364,0,0,1,.68.05Z" transform="translate(-24.513 -16.981)" fill="#fff"/>
      <path id="Path_3264" data-name="Path 3264" d="M124.5,27.506a6.375,6.375,0,0,1-.1,1.233h-8.155a3.55,3.55,0,0,0,1.183,2.771,4.04,4.04,0,0,0,2.667.856,9.02,9.02,0,0,0,3.3-.579l.426,1.887a10.2,10.2,0,0,1-4.1.756,5.942,5.942,0,0,1-4.47-1.674,6.183,6.183,0,0,1-1.623-4.493,7.009,7.009,0,0,1,1.512-4.607,5.21,5.21,0,0,1,4.278-1.962,4.559,4.559,0,0,1,4,1.962A6.617,6.617,0,0,1,124.5,27.506Zm-2.592-.705a3.693,3.693,0,0,0-.528-2.09,2.375,2.375,0,0,0-2.166-1.133,2.579,2.579,0,0,0-2.164,1.108,4.056,4.056,0,0,0-.8,2.114h5.662Z" transform="translate(-22.825 -16.986)" fill="#fff"/>
    </g>
    <g id="Group_9602" data-name="Group 9602" transform="translate(39.377 0.432)">
      <g id="Group_9601" data-name="Group 9601">
        <path id="Path_3265" data-name="Path 3265" d="M50.528,10.879a4.186,4.186,0,0,1-1.349,3.389,5.365,5.365,0,0,1-3.548,1.051,16.451,16.451,0,0,1-1.955-.1v-8.2a14.424,14.424,0,0,1,2.3-.173,4.961,4.961,0,0,1,3.3.952A3.849,3.849,0,0,1,50.528,10.879Zm-1.409.037a3.047,3.047,0,0,0-.773-2.239A3.046,3.046,0,0,0,46.088,7.9a5.655,5.655,0,0,0-1.076.087v6.234a7.055,7.055,0,0,0,.9.037,3.161,3.161,0,0,0,2.368-.853A3.416,3.416,0,0,0,49.119,10.916Z" transform="translate(-43.676 -6.476)" fill="#fff"/>
        <path id="Path_3266" data-name="Path 3266" d="M56.179,11.7a3.3,3.3,0,0,1-.792,2.276,2.826,2.826,0,0,1-2.2.915,2.686,2.686,0,0,1-2.109-.878,3.2,3.2,0,0,1-.784-2.213,3.265,3.265,0,0,1,.81-2.287,2.808,2.808,0,0,1,2.183-.89,2.749,2.749,0,0,1,2.128.877A3.173,3.173,0,0,1,56.179,11.7Zm-1.386.043a2.719,2.719,0,0,0-.358-1.427,1.32,1.32,0,0,0-1.2-.719,1.34,1.34,0,0,0-1.225.719,2.755,2.755,0,0,0-.358,1.451,2.718,2.718,0,0,0,.358,1.427,1.348,1.348,0,0,0,1.213.719,1.333,1.333,0,0,0,1.2-.732A2.7,2.7,0,0,0,54.793,11.744Z" transform="translate(-41.857 -5.988)" fill="#fff"/>
        <path id="Path_3267" data-name="Path 3267" d="M64.643,8.719l-1.881,6.01H61.539l-.779-2.61a19.534,19.534,0,0,1-.483-1.942h-.024a14.217,14.217,0,0,1-.483,1.942l-.827,2.61H57.7l-1.768-6.01h1.373l.68,2.857q.247,1.014.408,1.929h.024q.149-.754.5-1.916l.853-2.869h1.089l.817,2.808q.3,1.027.482,1.979h.037a18.905,18.905,0,0,1,.408-1.979l.729-2.808h1.312Z" transform="translate(-40.305 -5.961)" fill="#fff"/>
        <path id="Path_3268" data-name="Path 3268" d="M69.334,14.757H68V11.314q0-1.591-1.211-1.591a1.206,1.206,0,0,0-.965.437,1.552,1.552,0,0,0-.371,1.03v3.565H64.114V10.464q0-.792-.048-1.72H65.24l.062.94h.037a1.931,1.931,0,0,1,.692-.725,2.258,2.258,0,0,1,1.211-.338,1.918,1.918,0,0,1,1.4.544,2.645,2.645,0,0,1,.692,1.992Z" transform="translate(-38.069 -5.988)" fill="#fff"/>
        <path id="Path_3269" data-name="Path 3269" d="M71.376,15.324H70.041V6.556h1.335Z" transform="translate(-36.425 -6.556)" fill="#fff"/>
        <path id="Path_3270" data-name="Path 3270" d="M78.528,11.7a3.3,3.3,0,0,1-.792,2.276,2.828,2.828,0,0,1-2.2.915,2.682,2.682,0,0,1-2.109-.878,3.2,3.2,0,0,1-.784-2.213,3.265,3.265,0,0,1,.81-2.287,2.807,2.807,0,0,1,2.182-.89,2.752,2.752,0,0,1,2.129.877A3.173,3.173,0,0,1,78.528,11.7Zm-1.387.043a2.719,2.719,0,0,0-.358-1.427,1.318,1.318,0,0,0-1.2-.719,1.338,1.338,0,0,0-1.225.719A2.755,2.755,0,0,0,74,11.768,2.719,2.719,0,0,0,74.36,13.2a1.349,1.349,0,0,0,1.213.719,1.331,1.331,0,0,0,1.2-.732A2.69,2.69,0,0,0,77.14,11.744Z" transform="translate(-35.71 -5.988)" fill="#fff"/>
        <path id="Path_3271" data-name="Path 3271" d="M83.394,14.756h-1.2l-.1-.692h-.037a2.058,2.058,0,0,1-1.756.829,1.812,1.812,0,0,1-1.372-.544,1.707,1.707,0,0,1-.47-1.224,1.867,1.867,0,0,1,.922-1.682,4.784,4.784,0,0,1,2.592-.569v-.112q0-1.188-1.248-1.187a2.8,2.8,0,0,0-1.567.445l-.272-.877a3.854,3.854,0,0,1,2.062-.519q2.356,0,2.359,2.486v2.213A9.388,9.388,0,0,0,83.394,14.756ZM82.007,12.69v-.927Q79.8,11.725,79.8,12.975a.905.905,0,0,0,.256.705.935.935,0,0,0,.653.235,1.349,1.349,0,0,0,.817-.278,1.141,1.141,0,0,0,.484-.946Z" transform="translate(-34.11 -5.988)" fill="#fff"/>
        <path id="Path_3272" data-name="Path 3272" d="M89.523,15.324H88.337l-.062-.965h-.037a2,2,0,0,1-1.93,1.1,2.262,2.262,0,0,1-1.805-.853,3.323,3.323,0,0,1-.717-2.213,3.485,3.485,0,0,1,.779-2.363,2.4,2.4,0,0,1,1.855-.842,1.8,1.8,0,0,1,1.693.816h.025V6.556h1.337V13.7Q89.475,14.583,89.523,15.324ZM88.138,12.79v-1a1.967,1.967,0,0,0-.037-.421,1.522,1.522,0,0,0-.483-.81,1.313,1.313,0,0,0-.894-.328,1.371,1.371,0,0,0-1.176.594,2.546,2.546,0,0,0-.428,1.521,2.374,2.374,0,0,0,.411,1.447,1.375,1.375,0,0,0,1.168.593,1.287,1.287,0,0,0,1.056-.495A1.647,1.647,0,0,0,88.138,12.79Z" transform="translate(-32.646 -6.556)" fill="#fff"/>
        <path id="Path_3273" data-name="Path 3273" d="M98.518,11.7a3.3,3.3,0,0,1-.792,2.276,2.824,2.824,0,0,1-2.2.915,2.69,2.69,0,0,1-2.109-.878,3.2,3.2,0,0,1-.784-2.213,3.265,3.265,0,0,1,.81-2.287,2.809,2.809,0,0,1,2.184-.89,2.746,2.746,0,0,1,2.127.877A3.173,3.173,0,0,1,98.518,11.7Zm-1.385.043a2.718,2.718,0,0,0-.358-1.427,1.321,1.321,0,0,0-1.2-.719,1.343,1.343,0,0,0-1.225.719,2.755,2.755,0,0,0-.358,1.451A2.718,2.718,0,0,0,94.35,13.2a1.365,1.365,0,0,0,2.412-.013A2.713,2.713,0,0,0,97.133,11.744Z" transform="translate(-30.213 -5.988)" fill="#fff"/>
        <path id="Path_3274" data-name="Path 3274" d="M104.019,14.757h-1.335V11.314q0-1.591-1.213-1.591a1.2,1.2,0,0,0-.964.437,1.545,1.545,0,0,0-.371,1.03v3.565H98.8V10.464q0-.792-.047-1.72h1.173l.062.94h.037a1.95,1.95,0,0,1,.692-.725,2.263,2.263,0,0,1,1.213-.338,1.917,1.917,0,0,1,1.4.544,2.64,2.64,0,0,1,.692,1.992Z" transform="translate(-28.53 -5.988)" fill="#fff"/>
        <path id="Path_3275" data-name="Path 3275" d="M110.726,10.043h-1.471v2.92c0,.742.261,1.113.779,1.113a2.353,2.353,0,0,0,.6-.062l.034,1.014a3,3,0,0,1-1.038.149,1.6,1.6,0,0,1-1.235-.482,2.357,2.357,0,0,1-.446-1.621V10.043h-.878v-1h.878V7.94l1.309-.4v1.5h1.471v1Z" transform="translate(-26.244 -6.284)" fill="#fff"/>
        <path id="Path_3276" data-name="Path 3276" d="M116.61,15.324h-1.337V11.907q0-1.616-1.21-1.617a1.275,1.275,0,0,0-1.275.937,1.679,1.679,0,0,0-.062.481v3.615H111.39V6.556h1.335v3.622h.026a2.02,2.02,0,0,1,1.805-.988,1.862,1.862,0,0,1,1.374.544,2.737,2.737,0,0,1,.68,2.016v3.574Z" transform="translate(-25.054 -6.556)" fill="#fff"/>
        <path id="Path_3277" data-name="Path 3277" d="M122.36,11.469a3.228,3.228,0,0,1-.05.606H118.3a1.752,1.752,0,0,0,.58,1.36,1.991,1.991,0,0,0,1.312.421,4.427,4.427,0,0,0,1.621-.284l.209.928a5.032,5.032,0,0,1-2.017.371,2.913,2.913,0,0,1-2.194-.822,3.03,3.03,0,0,1-.8-2.207,3.44,3.44,0,0,1,.742-2.263,2.555,2.555,0,0,1,2.1-.964,2.235,2.235,0,0,1,1.965.964A3.209,3.209,0,0,1,122.36,11.469Zm-1.275-.346a1.8,1.8,0,0,0-.259-1.026,1.167,1.167,0,0,0-1.063-.557,1.269,1.269,0,0,0-1.063.544,2.022,2.022,0,0,0-.4,1.039h2.782Z" transform="translate(-23.507 -5.99)" fill="#fff"/>
      </g>
    </g>
  </g>
</svg>
