<svg xmlns="http://www.w3.org/2000/svg" xmlns:xlink="http://www.w3.org/1999/xlink" width="133" height="189" viewBox="0 0 133 189">
  <defs>
    <clipPath id="clip-path">
      <rect width="133" height="189" fill="none"/>
    </clipPath>
  </defs>
  <g id="Repeat_Grid_1" data-name="Repeat Grid 1" clip-path="url(#clip-path)">
    <g transform="translate(326 -147)">
      <circle id="Ellipse_1" data-name="Ellipse 1" cx="4" cy="4" r="4" transform="translate(-326 147)" fill="#fff"/>
    </g>
    <g transform="translate(354 -147)">
      <circle id="Ellipse_1-2" data-name="Ellipse 1" cx="4" cy="4" r="4" transform="translate(-326 147)" fill="#fff"/>
    </g>
    <g transform="translate(382 -147)">
      <circle id="Ellipse_1-3" data-name="Ellipse 1" cx="4" cy="4" r="4" transform="translate(-326 147)" fill="#fff"/>
    </g>
    <g transform="translate(410 -147)">
      <circle id="Ellipse_1-4" data-name="Ellipse 1" cx="4" cy="4" r="4" transform="translate(-326 147)" fill="#fff"/>
    </g>
    <g transform="translate(438 -147)">
      <circle id="Ellipse_1-5" data-name="Ellipse 1" cx="4" cy="4" r="4" transform="translate(-326 147)" fill="#fff"/>
    </g>
    <g transform="translate(326 -119)">
      <circle id="Ellipse_1-6" data-name="Ellipse 1" cx="4" cy="4" r="4" transform="translate(-326 147)" fill="#fff"/>
    </g>
    <g transform="translate(354 -119)">
      <circle id="Ellipse_1-7" data-name="Ellipse 1" cx="4" cy="4" r="4" transform="translate(-326 147)" fill="#fff"/>
    </g>
    <g transform="translate(382 -119)">
      <circle id="Ellipse_1-8" data-name="Ellipse 1" cx="4" cy="4" r="4" transform="translate(-326 147)" fill="#fff"/>
    </g>
    <g transform="translate(410 -119)">
      <circle id="Ellipse_1-9" data-name="Ellipse 1" cx="4" cy="4" r="4" transform="translate(-326 147)" fill="#fff"/>
    </g>
    <g transform="translate(438 -119)">
      <circle id="Ellipse_1-10" data-name="Ellipse 1" cx="4" cy="4" r="4" transform="translate(-326 147)" fill="#fff"/>
    </g>
    <g transform="translate(326 -91)">
      <circle id="Ellipse_1-11" data-name="Ellipse 1" cx="4" cy="4" r="4" transform="translate(-326 147)" fill="#fff"/>
    </g>
    <g transform="translate(354 -91)">
      <circle id="Ellipse_1-12" data-name="Ellipse 1" cx="4" cy="4" r="4" transform="translate(-326 147)" fill="#fff"/>
    </g>
    <g transform="translate(382 -91)">
      <circle id="Ellipse_1-13" data-name="Ellipse 1" cx="4" cy="4" r="4" transform="translate(-326 147)" fill="#fff"/>
    </g>
    <g transform="translate(410 -91)">
      <circle id="Ellipse_1-14" data-name="Ellipse 1" cx="4" cy="4" r="4" transform="translate(-326 147)" fill="#fff"/>
    </g>
    <g transform="translate(438 -91)">
      <circle id="Ellipse_1-15" data-name="Ellipse 1" cx="4" cy="4" r="4" transform="translate(-326 147)" fill="#fff"/>
    </g>
    <g transform="translate(326 -63)">
      <circle id="Ellipse_1-16" data-name="Ellipse 1" cx="4" cy="4" r="4" transform="translate(-326 147)" fill="#fff"/>
    </g>
    <g transform="translate(354 -63)">
      <circle id="Ellipse_1-17" data-name="Ellipse 1" cx="4" cy="4" r="4" transform="translate(-326 147)" fill="#fff"/>
    </g>
    <g transform="translate(382 -63)">
      <circle id="Ellipse_1-18" data-name="Ellipse 1" cx="4" cy="4" r="4" transform="translate(-326 147)" fill="#fff"/>
    </g>
    <g transform="translate(410 -63)">
      <circle id="Ellipse_1-19" data-name="Ellipse 1" cx="4" cy="4" r="4" transform="translate(-326 147)" fill="#fff"/>
    </g>
    <g transform="translate(438 -63)">
      <circle id="Ellipse_1-20" data-name="Ellipse 1" cx="4" cy="4" r="4" transform="translate(-326 147)" fill="#fff"/>
    </g>
    <g transform="translate(326 -35)">
      <circle id="Ellipse_1-21" data-name="Ellipse 1" cx="4" cy="4" r="4" transform="translate(-326 147)" fill="#fff"/>
    </g>
    <g transform="translate(354 -35)">
      <circle id="Ellipse_1-22" data-name="Ellipse 1" cx="4" cy="4" r="4" transform="translate(-326 147)" fill="#fff"/>
    </g>
    <g transform="translate(382 -35)">
      <circle id="Ellipse_1-23" data-name="Ellipse 1" cx="4" cy="4" r="4" transform="translate(-326 147)" fill="#fff"/>
    </g>
    <g transform="translate(410 -35)">
      <circle id="Ellipse_1-24" data-name="Ellipse 1" cx="4" cy="4" r="4" transform="translate(-326 147)" fill="#fff"/>
    </g>
    <g transform="translate(438 -35)">
      <circle id="Ellipse_1-25" data-name="Ellipse 1" cx="4" cy="4" r="4" transform="translate(-326 147)" fill="#fff"/>
    </g>
    <g transform="translate(326 -7)">
      <circle id="Ellipse_1-26" data-name="Ellipse 1" cx="4" cy="4" r="4" transform="translate(-326 147)" fill="#fff"/>
    </g>
    <g transform="translate(354 -7)">
      <circle id="Ellipse_1-27" data-name="Ellipse 1" cx="4" cy="4" r="4" transform="translate(-326 147)" fill="#fff"/>
    </g>
    <g transform="translate(382 -7)">
      <circle id="Ellipse_1-28" data-name="Ellipse 1" cx="4" cy="4" r="4" transform="translate(-326 147)" fill="#fff"/>
    </g>
    <g transform="translate(410 -7)">
      <circle id="Ellipse_1-29" data-name="Ellipse 1" cx="4" cy="4" r="4" transform="translate(-326 147)" fill="#fff"/>
    </g>
    <g transform="translate(438 -7)">
      <circle id="Ellipse_1-30" data-name="Ellipse 1" cx="4" cy="4" r="4" transform="translate(-326 147)" fill="#fff"/>
    </g>
    <g transform="translate(326 21)">
      <circle id="Ellipse_1-31" data-name="Ellipse 1" cx="4" cy="4" r="4" transform="translate(-326 147)" fill="#fff"/>
    </g>
    <g transform="translate(354 21)">
      <circle id="Ellipse_1-32" data-name="Ellipse 1" cx="4" cy="4" r="4" transform="translate(-326 147)" fill="#fff"/>
    </g>
    <g transform="translate(382 21)">
      <circle id="Ellipse_1-33" data-name="Ellipse 1" cx="4" cy="4" r="4" transform="translate(-326 147)" fill="#fff"/>
    </g>
    <g transform="translate(410 21)">
      <circle id="Ellipse_1-34" data-name="Ellipse 1" cx="4" cy="4" r="4" transform="translate(-326 147)" fill="#fff"/>
    </g>
    <g transform="translate(438 21)">
      <circle id="Ellipse_1-35" data-name="Ellipse 1" cx="4" cy="4" r="4" transform="translate(-326 147)" fill="#fff"/>
    </g>
  </g>
</svg>
