<svg xmlns="http://www.w3.org/2000/svg" xmlns:xlink="http://www.w3.org/1999/xlink" width="170" height="51" viewBox="0 0 170 51">
  <defs>
    <linearGradient id="linear-gradient" x1="2.472" y1="1.035" x2="2.361" y2="1.005" gradientUnits="objectBoundingBox">
      <stop offset="0" stop-color="#00a0ff"/>
      <stop offset="0.007" stop-color="#00a1ff"/>
      <stop offset="0.26" stop-color="#00beff"/>
      <stop offset="0.512" stop-color="#00d2ff"/>
      <stop offset="0.76" stop-color="#00dfff"/>
      <stop offset="1" stop-color="#00e3ff"/>
    </linearGradient>
    <linearGradient id="linear-gradient-2" x1="1.95" y1="1.879" x2="1.69" y2="1.879" gradientUnits="objectBoundingBox">
      <stop offset="0" stop-color="#ffe000"/>
      <stop offset="0.409" stop-color="#ffbd00"/>
      <stop offset="0.775" stop-color="orange"/>
      <stop offset="1" stop-color="#ff9c00"/>
    </linearGradient>
    <linearGradient id="linear-gradient-3" x1="1.926" y1="0.946" x2="1.835" y2="0.793" gradientUnits="objectBoundingBox">
      <stop offset="0" stop-color="#ff3a44"/>
      <stop offset="1" stop-color="#c31162"/>
    </linearGradient>
    <linearGradient id="linear-gradient-4" x1="1.856" y1="2.093" x2="1.897" y2="2.025" gradientUnits="objectBoundingBox">
      <stop offset="0" stop-color="#32a071"/>
      <stop offset="0.068" stop-color="#2da771"/>
      <stop offset="0.476" stop-color="#15cf74"/>
      <stop offset="0.801" stop-color="#06e775"/>
      <stop offset="1" stop-color="#00f076"/>
    </linearGradient>
  </defs>
  <g id="Group_9605" data-name="Group 9605" transform="translate(0.217)">
    <rect id="Rectangle_1569" data-name="Rectangle 1569" width="170" height="51" rx="10" transform="translate(-0.217)" fill="#001733"/>
    <g id="Group_9604" data-name="Group 9604" transform="translate(12.443 8.478)">
      <path id="Path_3280" data-name="Path 3280" d="M1692.066,279.4a3.811,3.811,0,0,1-2.845-1.177,4.009,4.009,0,0,1-1.149-2.873,3.921,3.921,0,0,1,1.149-2.87,3.8,3.8,0,0,1,2.842-1.177,3.85,3.85,0,0,1,2.845,1.177,4.158,4.158,0,0,1,0,5.74A3.779,3.779,0,0,1,1692.066,279.4Zm-33.731,0a3.952,3.952,0,0,1-2.857-1.162,4.047,4.047,0,0,1,2.857-6.933,3.982,3.982,0,0,1,1.6.331,3.228,3.228,0,0,1,1.215.868l.075.091-.846.831-.087-.1a2.4,2.4,0,0,0-1.964-.846,2.715,2.715,0,0,0-1.958.8,3.036,3.036,0,0,0,0,4.16,2.863,2.863,0,0,0,3.969,0,2.162,2.162,0,0,0,.574-1.3h-2.714v-1.168h3.879l.016.106a4.291,4.291,0,0,1,.056.587,3.516,3.516,0,0,1-.968,2.592A3.779,3.779,0,0,1,1658.335,279.4Zm44.849-.165h-1.2l-3.663-5.862.031,1.056v4.8h-1.2v-7.76h1.365l.037.059,3.445,5.521-.031-1.052v-4.528h1.208Zm-20.105,0h-1.212v-6.6h-2.1v-1.168h5.412v1.168h-2.1v6.6Zm-4.3,0h-1.209v-7.764h1.209Zm-6.792,0h-1.209v-6.6h-2.1v-1.168h5.412v1.168h-2.1Zm-4.076-.013h-4.634v-7.751h4.634v1.168h-3.423v2.13h3.089v1.155h-3.089v2.13h3.423Zm22.2-1.8a2.675,2.675,0,0,0,1.958.812,2.607,2.607,0,0,0,1.958-.812,3.077,3.077,0,0,0,0-4.135,2.68,2.68,0,0,0-1.958-.812,2.6,2.6,0,0,0-1.955.812,3.082,3.082,0,0,0-.006,4.135Z" transform="translate(-1615.132 -271.3)" fill="#fff"/>
      <path id="Path_3281" data-name="Path 3281" d="M1680.6,688.915a5.328,5.328,0,1,0,5.343,5.328A5.244,5.244,0,0,0,1680.6,688.915Zm0,8.544a3.238,3.238,0,1,1,3-3.229A3.083,3.083,0,0,1,1680.6,697.459Zm-11.658-8.544a5.328,5.328,0,1,0,5.343,5.328A5.244,5.244,0,0,0,1668.938,688.915Zm0,8.544a3.238,3.238,0,1,1,3-3.229A3.083,3.083,0,0,1,1668.938,697.459Zm-13.872-6.917V692.8h5.412a4.751,4.751,0,0,1-1.224,2.839,5.522,5.522,0,0,1-4.175,1.655,6.012,6.012,0,0,1,0-12.023,5.777,5.777,0,0,1,4.075,1.614l1.6-1.6a7.863,7.863,0,0,0-5.662-2.283,8.267,8.267,0,1,0,0,16.533,7.567,7.567,0,0,0,5.774-2.323,7.482,7.482,0,0,0,1.961-5.287,6.96,6.96,0,0,0-.125-1.405h-7.639S1655.066,690.542,1655.066,690.542Zm56.741,1.755a4.951,4.951,0,0,0-4.563-3.395,5.061,5.061,0,0,0-5.021,5.328,5.207,5.207,0,0,0,5.287,5.328,5.288,5.288,0,0,0,4.438-2.364l-1.808-1.212a3.03,3.03,0,0,1-2.617,1.474,2.721,2.721,0,0,1-2.589-1.614l7.123-2.951S1711.807,692.3,1711.807,692.3Zm-7.264,1.78a2.924,2.924,0,0,1,2.783-3.1,2.054,2.054,0,0,1,1.977,1.127Zm-5.787,5.162h2.339V683.587h-2.339Zm-3.841-9.141h-.084a3.69,3.69,0,0,0-2.811-1.2,5.328,5.328,0,0,0,0,10.646,3.68,3.68,0,0,0,2.811-1.212h.084v.765c0,2.033-1.087,3.129-2.839,3.129a2.954,2.954,0,0,1-2.686-1.893l-2.033.849a5.085,5.085,0,0,0,4.715,3.145c2.742,0,5.066-1.615,5.066-5.553v-9.559h-2.211v.878Zm-2.686,7.361a3.239,3.239,0,0,1,0-6.455,3,3,0,0,1,2.839,3.242A2.958,2.958,0,0,1,1692.229,697.459Zm30.53-13.872h-5.593v15.652h2.339v-5.927h3.257a4.87,4.87,0,1,0,0-9.725Zm.069,7.539H1719.5v-5.372h3.326a2.686,2.686,0,1,1,0,5.372Zm14.443-2.239a4.405,4.405,0,0,0-4.175,2.392l2.074.862a2.224,2.224,0,0,1,2.13-1.156,2.259,2.259,0,0,1,2.464,2.017v.166a5.239,5.239,0,0,0-2.436-.6c-2.239,0-4.51,1.224-4.51,3.519a3.618,3.618,0,0,0,3.882,3.451,3.293,3.293,0,0,0,2.976-1.53h.084v1.212h2.255v-6C1742.015,690.433,1739.941,688.887,1737.271,688.887Zm-.293,8.572c-.765,0-1.836-.375-1.836-1.337,0-1.212,1.336-1.671,2.476-1.671a4.059,4.059,0,0,1,2.13.528A2.815,2.815,0,0,1,1736.978,697.459Zm13.263-8.238-2.686,6.789h-.084l-2.783-6.789h-2.517l4.175,9.491-2.38,5.275h2.436l6.424-14.765Zm-21.055,10.018h2.339V683.587h-2.339Z" transform="translate(-1607.77 -670.143)" fill="#fff" fill-rule="evenodd"/>
      <path id="Path_3282" data-name="Path 3282" d="M400.671,299.484a2.537,2.537,0,0,0-.572,1.768v27.691a2.415,2.415,0,0,0,.584,1.752l.1.084L416.3,315.265v-.347L400.768,299.4Z" transform="translate(-400.1 -298.522)" fill-rule="evenodd" fill="url(#linear-gradient)"/>
      <path id="Path_3283" data-name="Path 3283" d="M923.475,641.212l-5.175-5.175v-.362l5.175-5.175.112.069,6.121,3.479c1.752.987,1.752,2.617,0,3.616l-6.121,3.479Z" transform="translate(-902.117 -619.282)" fill-rule="evenodd" fill="url(#linear-gradient-2)"/>
      <path id="Path_3284" data-name="Path 3284" d="M439.3,807.287,434.012,802,418.4,817.612a2.049,2.049,0,0,0,2.6.084l18.3-10.409" transform="translate(-417.829 -785.426)" fill-rule="evenodd" fill="url(#linear-gradient-3)"/>
      <path id="Path_3285" data-name="Path 3285" d="M439.3,297.293,421,286.9a2.029,2.029,0,0,0-2.6.084l15.612,15.6Z" transform="translate(-417.829 -286.006)" fill-rule="evenodd" fill="url(#linear-gradient-4)"/>
      <path id="Path_3286" data-name="Path 3286" d="M439.574,967.7,421.4,978.024a2.062,2.062,0,0,1-2.5.012l-.1.1.1.084a2.067,2.067,0,0,0,2.5-.013l18.3-10.393Z" transform="translate(-418.216 -945.952)" fill-rule="evenodd" opacity="0.2"/>
      <path id="Path_3287" data-name="Path 3287" d="M1089.749,803.627l-6.249,3.548.112.112,6.121-3.479a2.193,2.193,0,0,0,1.309-1.808A2.253,2.253,0,0,1,1089.749,803.627Z" transform="translate(-1062.158 -785.426)" fill-rule="evenodd" opacity="0.12"/>
      <path id="Path_3288" data-name="Path 3288" d="M403.273,286.911l24.418,13.872A2.3,2.3,0,0,1,429,302.411a2.193,2.193,0,0,0-1.309-1.808L403.273,286.73c-1.752-1-3.173-.165-3.173,1.836v.181C400.1,286.743,401.521,285.921,403.273,286.911Z" transform="translate(-400.1 -285.837)" fill="#fff" fill-rule="evenodd" opacity="0.25"/>
    </g>
  </g>
</svg>
